<svg xmlns="http://www.w3.org/2000/svg" viewBox="0 0 24.96 31.02"><defs><style>.cls-1{fill:rgb(138,7,7);}</style></defs><title>apple</title><g id="Layer_2" data-name="Layer 2"><g id="Work_Mobile" data-name="Work Mobile"><path class="cls-1" d="M24,10.18a25.76,25.76,0,0,0-2.69,4.46A6.39,6.39,0,0,0,23.94,22c1.1.76,1.29,1.4.64,2.47S23.29,26.92,22.51,28c-2.29,3.26-3.32,3.39-7.09,2.34a10.07,10.07,0,0,0-5.12.24c-2.67.74-3.87.64-5.6-1.49C1.18,24.8-.72,19.94.26,14.31,1.18,9,5.75,6.41,10.79,8.39a5.46,5.46,0,0,0,4.31-.16C18.84,6.76,21.8,7.49,24,10.18Z"/><path class="cls-1" d="M18.64,0c.2,3.94-2.47,7-5.88,6.82C12.5,3.34,14.66.79,18.64,0Z"/></g></g></svg>