<svg xmlns="http://www.w3.org/2000/svg" viewBox="0 0 56 56"><defs><style>.cls-1{fill:#fff;}</style></defs><title>equipment</title><g id="Layer_2" data-name="Layer 2"><g id="Services"><path class="cls-1" d="M17.82,26.73A3.82,3.82,0,1,0,14,30.54,3.81,3.81,0,0,0,17.82,26.73ZM35.63,14a3.81,3.81,0,0,0-3.82-3.82H24.18a3.82,3.82,0,0,0,0,7.64h7.64A3.81,3.81,0,0,0,35.63,14ZM19.09,35.63a3.82,3.82,0,1,0,3.82,3.82A3.81,3.81,0,0,0,19.09,35.63ZM28,0A28,28,0,1,0,56,28,28,28,0,0,0,28,0Zm0,50.9A22.91,22.91,0,1,1,50.9,28,22.94,22.94,0,0,1,28,50.9Zm14-28a3.82,3.82,0,1,0,3.82,3.82A3.81,3.81,0,0,0,42,22.91ZM36.91,35.63a3.82,3.82,0,1,0,3.82,3.82A3.81,3.81,0,0,0,36.91,35.63Z"/></g></g></svg>