<svg xmlns="http://www.w3.org/2000/svg" viewBox="0 0 78.61 78.61"><defs><style>.a{fill:#fff;}</style></defs><title>facebook</title><path class="a" d="M0,0V78.61H78.61V0ZM51.5,37.05c-.4,2-.82,4-1.21,6-.08.4-.22.52-.62.52-2,0-4,0-6,0h-.69v.71q0,10.11,0,20.23c0,.24,0,.49,0,.73h-9c0-.24,0-.49,0-.73q0-10.08,0-20.17v-.75h-7.2V34.48h7.2c0-.45,0-.82,0-1.19,0-1.75-.07-3.51,0-5.25a12.75,12.75,0,0,1,3.62-8.87,9.58,9.58,0,0,1,6.72-2.78c2.43-.05,4.86,0,7.29,0l.48,0v9.06l-.58,0c-1.39,0-2.79,0-4.17.11A4.29,4.29,0,0,0,43,29.74c0,.41-.09.82-.1,1.24,0,1.13,0,2.26,0,3.47H52C51.82,35.37,51.66,36.21,51.5,37.05Z"/></svg>