<svg xmlns="http://www.w3.org/2000/svg" viewBox="0 0 60.38 60.38"><defs><style>.a{fill:#fff;}</style></defs><title>mix</title><path class="a" d="M11,2.74a2.74,2.74,0,0,0-5.49,0v11H0V30.19H16.47V13.72H11ZM22,41.17a8.26,8.26,0,0,0,5.49,7.74V60.38h5.49V48.91a8.21,8.21,0,0,0,5.49-7.74V35.68H22Zm-22,0a8.26,8.26,0,0,0,5.49,7.74V60.38H11V48.91a8.26,8.26,0,0,0,5.49-7.74V35.68H0ZM54.89,13.72v-11a2.74,2.74,0,0,0-5.49,0v11H43.91V30.19H60.38V13.72Zm-22-11a2.74,2.74,0,0,0-5.49,0v11H22V30.19H38.42V13.72H32.94Zm11,38.42a8.26,8.26,0,0,0,5.49,7.74V60.38h5.49V48.91a8.21,8.21,0,0,0,5.49-7.74V35.68H43.91Z"/></svg>