<svg xmlns="http://www.w3.org/2000/svg" viewBox="0 0 78.72 78.72"><defs><style>.a{fill:#fff;}</style></defs><title>soundcloud_1</title><path class="a" d="M0,0V78.72H78.72V0ZM11.08,48a3.06,3.06,0,0,1,0,.35c0,.12,0,.24-.17.28a.29.29,0,0,1-.3-.12A6.84,6.84,0,0,1,8.77,45a6.53,6.53,0,0,1,1.76-5.8c.1-.11.22-.26.39-.18s.17.27.17.44q0,2.17,0,4.33T11.08,48Zm5,1.91c0,.48-.08.57-.56.58a8.49,8.49,0,0,1-1.57-.18.5.5,0,0,1-.46-.56q0-5.94,0-11.88a.46.46,0,0,1,.42-.5,6.83,6.83,0,0,1,1.65-.17c.43,0,.52.09.52.53q0,3.06,0,6.11T16.07,49.87Zm5-7.67q0,3.83,0,7.66c0,.52-.06.58-.57.59s-1.06,0-1.59,0c-.34,0-.5-.12-.5-.48q0-5.77,0-11.53c0-.24,0-.45.36-.38s.24-.18.28-.33a9.88,9.88,0,0,1,1.45-3.35c.11-.16.18-.44.43-.36s.13.34.13.52Q21.07,38.37,21.07,42.2Zm5,7.6c0,.59-.06.64-.64.64H24c-.53,0-.61-.08-.61-.6q0-5.07,0-10.14c0-2.58,0-5.16,0-7.74a.78.78,0,0,1,.44-.78,13.79,13.79,0,0,1,1.52-.76c.58-.23.68-.17.68.45q0,4.74,0,9.48T26.05,49.8Zm4.94,0c0,.58-.07.65-.64.65H29c-.52,0-.6-.09-.61-.61q0-4.9,0-9.79t0-9.68c0-.63.09-.72.71-.72a11.55,11.55,0,0,1,1.31.05c.47.05.58.15.58.63q0,5.65,0,11.3Q31,45.71,31,49.79Zm5-9.63Q36,45,36,49.8c0,.58-.06.65-.64.65H32.67c-.47,0-.57-.1-.57-.57q0-9.64,0-19.28c0-.51.11-.59.57-.43a8.94,8.94,0,0,1,1.73.76.38.38,0,0,0,.6-.15c.16-.25.35-.48.53-.71s.16-.19.29-.14.14.17.14.29,0,.26,0,.39Q36,35.38,36,40.16Zm30.08,8.15a7.69,7.69,0,0,1-4.52,2,19.66,19.66,0,0,1-2.74.13H37.87c-.71,0-.77-.06-.77-.77q0-10.3,0-20.6a1.21,1.21,0,0,1,.51-1,12.67,12.67,0,0,1,7.19-2.73A12.7,12.7,0,0,1,58.13,36c.08.52.08.52.58.33a7,7,0,0,1,8.47,3.32,7.5,7.5,0,0,1,.89,3.6A7,7,0,0,1,66.07,48.31Z"/></svg>