<svg xmlns="http://www.w3.org/2000/svg" viewBox="0 0 359.94 42.13"><defs><style>.cls-1{fill:#fff;}</style></defs><title>type</title><g id="Layer_2" data-name="Layer 2"><g id="Home"><path class="cls-1" d="M166.4,7.37a7.77,7.77,0,0,0-.73-2.92,8.83,8.83,0,0,0-1.87-2.69,1.92,1.92,0,0,0-1.07-.6A4.42,4.42,0,0,1,161.45.8a3.16,3.16,0,0,0-1.56-.29c-.23,0-.47.13-.7.12a3.12,3.12,0,0,0-1.89.7,13,13,0,0,0-3.92,3.83c-.1.15-.22.29-.32.43a13.12,13.12,0,0,0-1.28,2,6.07,6.07,0,0,1-.41.68.21.21,0,0,1-.14.08c-.11,0-.14-.08-.15-.17a12,12,0,0,0-.88-3.43,9.85,9.85,0,0,0-1.26-2,1.7,1.7,0,0,0-.53-.47,8.48,8.48,0,0,1-.89-.59,2.75,2.75,0,0,0-1.5-.51,9.1,9.1,0,0,0-5.26,1.7,13.62,13.62,0,0,0-3.26,2.88c-.31.4-.68.75-1,1.12-.08.08-.15.19-.29.12s-.1-.2-.12-.31a.72.72,0,0,1,0-.09q-.09-2.68-.17-5.35c0-.85-.12-.94-1-.94h-.09a30.15,30.15,0,0,1-3,.17,2.53,2.53,0,0,0-1,.19c-.18.08-.41.18-.45.41a5,5,0,0,0-.2,1.49,17.08,17.08,0,0,1,.07,2.13c0,.71-.08,1.42-.1,2.13,0,1.93.16,3.86,0,5.79,0,.12,0,.24,0,.36,0,.74.06,1.49.06,2.23s.08,1.53.09,2.3c0,1.46-.1,2.91,0,4.37.06,1.19-.06,2.38,0,3.56.1,2.65-.14,5.3.13,7.94a1.19,1.19,0,0,1,0,.26,32.07,32.07,0,0,0,0,4.54,9,9,0,0,1,0,1.59c-.11.66.11.88.79,1a3.88,3.88,0,0,0,1.23.12c1-.12,2-.24,3-.27.4,0,.55-.18.5-.58a35.59,35.59,0,0,1-.09-3.84q0-2.86,0-5.71c0-1.7,0-3.39,0-5.09s-.06-3.27.06-4.91c.07-.95.05-1.9.07-2.85,0-.59,0-1.19,0-1.78a4.31,4.31,0,0,0,0-1.15,2.58,2.58,0,0,1-.06-.53q0-1.74,0-3.48c0-.33,0-.65.06-1a1.87,1.87,0,0,1,.33-1c.31-.39.54-.85.9-1.22.55-.58,1-1.23,1.57-1.82A2.93,2.93,0,0,1,140,4.77c.07,0,.11-.13.16-.2h0a.22.22,0,0,0,.18-.18l0,0h0l0,0a.24.24,0,0,0,.19-.17,11.71,11.71,0,0,1,1.27-.36,6.26,6.26,0,0,1,2.79.34,3.24,3.24,0,0,1,1.88,1.26.5.5,0,0,0,.12.13,3.74,3.74,0,0,1,1.34,2.61c.08.52.15,1.05.22,1.58,0,1.27.07,2.55.17,3.82a19.8,19.8,0,0,1-.07,3.63,12.29,12.29,0,0,0-.07,1.33c0,1,0,2,0,3s-.1,2-.13,3a7.07,7.07,0,0,1-.14,2,1,1,0,0,0,0,.44,9.31,9.31,0,0,1,0,2.75,2.56,2.56,0,0,0,0,.71c.13.86.05,1.72.11,2.57h0a1.37,1.37,0,0,0-.08.34q.07,2.63,0,5.26a3.31,3.31,0,0,0,0,.62,2,2,0,0,1,0,1.14c-.07.17,0,.27.17.36a1.16,1.16,0,0,0,.68.16l1.33-.05c.45,0,.58-.16.58-.61q0-1.07,0-2.14c0-1.42.08-2.85.12-4.27,0-1.13,0-2.25,0-3.38s-.05-2.37,0-3.56c0-.35,0-.71,0-1.07,0-.53,0-1.07.07-1.6a9.67,9.67,0,0,0,.07-1.6,13.62,13.62,0,0,1-.08-2c.14-1.18,0-2.38.26-3.55a.59.59,0,0,0,0-.26,11.33,11.33,0,0,1,0-3,15.76,15.76,0,0,0,0-2.66,1.17,1.17,0,0,1,.07-.7,7.32,7.32,0,0,1,.87-1.55,2.5,2.5,0,0,0,.46-.76A10.07,10.07,0,0,1,154,5.72c.33-.49.66-1,1-1.45a2.88,2.88,0,0,1,1.89-1.06,9.23,9.23,0,0,1,2.22-.07,2.22,2.22,0,0,1,1.26.39,4.69,4.69,0,0,1,1.5,1.62,4.43,4.43,0,0,0,.45.65c.14.48.46.89.56,1.4a13.26,13.26,0,0,1,.31,2.38c0,2,0,4.1,0,6.15,0,.5,0,1,0,1.51-.11,1.15-.08,2.31-.11,3.46s0,2.38,0,3.57-.07,2.2,0,3.3,0,2.43-.07,3.65,0,2.32-.09,3.47,0,2.19-.12,3.29a7.57,7.57,0,0,0,.09,2.22.48.48,0,0,0,.46.45,11.2,11.2,0,0,0,2.57-.11.29.29,0,0,0,.24-.32c0-.42,0-.83,0-1.25a22.25,22.25,0,0,1,0-2.23,34.58,34.58,0,0,0-.06-3.91,15,15,0,0,0,.05-2.74c0-1.16,0-2.32,0-3.48s0-2.5.15-3.75c.14-1.43.15-2.85.16-4.28,0-1.61.06-3.21.11-4.82,0-1.07.06-2.14,0-3.21A11,11,0,0,0,166.4,7.37Z"/><path class="cls-1" d="M25.46,3.11a10,10,0,0,0-1.75-.34c-.56,0-1.1-.21-1.66-.28a16.69,16.69,0,0,0-2.21-.22,15.68,15.68,0,0,0-2.57.25c-.76.13-1.5.35-2.26.52a13.78,13.78,0,0,0-2.62.85A18.17,18.17,0,0,0,7.07,7.43c-.43.41-.8.89-1.24,1.28a23.19,23.19,0,0,0-2.64,3.12,4.81,4.81,0,0,0-.55.92,6.52,6.52,0,0,1-.86,1.65,1.13,1.13,0,0,0-.16.41c-.22.71-.43,1.42-.67,2.13A20.08,20.08,0,0,0,.12,20.4a12.38,12.38,0,0,0,.16,4.35,7.81,7.81,0,0,0,.4,1.55c.35.81.66,1.64,1,2.47a2.81,2.81,0,0,0,.22.49c.71,1.1,1.39,2.21,2.16,3.27.33.45.69.89,1,1.34A8.65,8.65,0,0,0,7.48,36.1c.33.19.64.43,1,.65a21.77,21.77,0,0,1,1.92,1.12,1.15,1.15,0,0,0,.33.14c.44.18.89.34,1.33.53a13,13,0,0,0,3.75,1.09,19.11,19.11,0,0,0,2.3.24,20.9,20.9,0,0,0,3.73-.31c1-.19,2-.43,3-.67a3.09,3.09,0,0,0,.74-.31.5.5,0,0,0,.19-.28.19.19,0,0,0-.15-.27,2.34,2.34,0,0,0-.26,0,12.67,12.67,0,0,0-2.39.25,12.62,12.62,0,0,1-4.15-.39,2.81,2.81,0,0,1-.68-.19c-.92-.48-1.84-1-2.74-1.5A18.35,18.35,0,0,1,13.59,35c-.53-.39-1.14-.63-1.65-1.06a18.93,18.93,0,0,1-2.29-2.23A11.36,11.36,0,0,1,7.71,29c-.15-.35-.24-.74-.4-1.09a16.44,16.44,0,0,1-1.41-5s0-.06,0-.09a12.91,12.91,0,0,1,.26-5.39,17.91,17.91,0,0,1,2.16-5.16,14.29,14.29,0,0,1,.92-1.42A6.55,6.55,0,0,1,10.5,9.33a.79.79,0,0,0,.17-.2,7,7,0,0,1,3-2.42,5.23,5.23,0,0,0,.77-.45,6.2,6.2,0,0,1,2.46-1.2.79.79,0,0,0,.25-.1,6.84,6.84,0,0,1,2.48-.69,30.33,30.33,0,0,1,4.31-.33A6.15,6.15,0,0,1,25.4,4,3.82,3.82,0,0,0,26,4c.11,0,.25,0,.29-.14a.33.33,0,0,0-.13-.39A2.14,2.14,0,0,0,25.46,3.11Z"/><path class="cls-1" d="M69.72,27.74c0-.29-.12-.58-.15-.88A3.42,3.42,0,0,0,69,25.3a1.42,1.42,0,0,0-1.26-.71,5.85,5.85,0,0,1-1,0,2.35,2.35,0,0,0-1.54.32,7.67,7.67,0,0,0-2.45,2c-.26.36-.58.68-.87,1-.12.13-.23.28-.44.27a1.44,1.44,0,0,1-.28-.83c0-.38-.11-.77-.16-1.15a1.67,1.67,0,0,0-.33-.81,2.11,2.11,0,0,0-1.59-.87,4.84,4.84,0,0,0-3.74,1.36c-.59.51-1.24.92-1.81,1.44a.22.22,0,0,1-.38-.14c0-.18,0-.36,0-.54,0-.57,0-1.13,0-1.7,0-.39-.14-.56-.5-.62a3.11,3.11,0,0,0-1,0c-.47.08-.95.05-1.42.09-.29,0-.64-.13-.87.07s0,.61,0,.92a2.2,2.2,0,0,0,0,.36c0,1.22-.07,2.44-.09,3.66,0,.74,0,1.49,0,2.23,0,1.58,0,3.15,0,4.73,0,.92,0,1.85-.09,2.76a6,6,0,0,0,.11,1.24.66.66,0,0,0,.51.56,3.69,3.69,0,0,0,2.36,0,.69.69,0,0,0,.54-.62A6.76,6.76,0,0,0,52.7,39a12.4,12.4,0,0,1,0-1.25c0-.36,0-.71,0-1.07,0-1.84,0-3.69.13-5.53,0-.62.09-1.25.13-1.87,0-.33,0-.66.39-.84.1-.05.16-.17.23-.27a4.38,4.38,0,0,1,1.52-1.35,4.76,4.76,0,0,0,.49-.38,18.68,18.68,0,0,1,1.55-1,1.29,1.29,0,0,1,2,1c0,.06,0,.12,0,.18a6.74,6.74,0,0,0,.32,2,.68.68,0,0,1,0,.26c0,.71,0,1.43,0,2.14,0,1.88-.15,3.75-.28,5.61,0,.44-.09.89-.13,1.33-.06.74-.13,1.48-.18,2.22,0,.37.1.51.44.54a9.61,9.61,0,0,0,1.25,0,.58.58,0,0,0,.58-.79A6.23,6.23,0,0,1,61,38.23c0-.71.06-1.43.06-2.14,0-1.63.09-3.26.19-4.89a8.5,8.5,0,0,0,.07-1.07,1.74,1.74,0,0,1,.46-1.3c.45-.52.92-1,1.32-1.57a6.26,6.26,0,0,1,.91-1,4.28,4.28,0,0,1,2.18-1.13,1.22,1.22,0,0,1,1.55,1.15,28.61,28.61,0,0,1,.09,4.27A13.12,13.12,0,0,1,67.8,32c-.18,1.21-.22,2.43-.3,3.64A27,27,0,0,1,67.24,39a3.34,3.34,0,0,0,0,1c0,.42.27.6.7.67a3.94,3.94,0,0,0,1.07,0,.47.47,0,0,0,.45-.47c0-.44.11-.89.12-1.33,0-.68,0-1.37,0-2.05a6.22,6.22,0,0,1,.08-1.33,5.62,5.62,0,0,0,0-2,2,2,0,0,1,0-.53,15.32,15.32,0,0,0,.09-3,.83.83,0,0,1,0-.35A4,4,0,0,0,69.72,27.74Z"/><path class="cls-1" d="M120.76,31.45a2,2,0,0,0,0-.44,10.8,10.8,0,0,1-.06-2.58,2.51,2.51,0,0,0-.11-1.23,5,5,0,0,1-.31-1.11,1,1,0,0,0-.64-.79c-.25-.09-.49-.22-.73-.32a5.41,5.41,0,0,0-2.7-.41,2.52,2.52,0,0,0-1,.31A14.9,14.9,0,0,0,112.34,27a20.31,20.31,0,0,0-1.53,1.74,1.74,1.74,0,0,1-.89.65c0-.61,0-1.14,0-1.67,0-.74,0-1.49-.07-2.23,0-.5-.16-.63-.66-.64s-1.07,0-1.6,0c-.84,0-1.15.32-1.23,1.18,0,0,0,.06,0,.09,0,1.3-.09,2.61-.1,3.91,0,1.93,0,3.86,0,5.79,0,1.42.05,2.85-.05,4.27a.75.75,0,0,0,.66.8,7,7,0,0,0,2-.11.45.45,0,0,0,.38-.43,14.75,14.75,0,0,0,.17-2.84,12.33,12.33,0,0,1,0-1.52,38.21,38.21,0,0,0,.22-3.92,1.07,1.07,0,0,1,.21-.66,6.09,6.09,0,0,1,.57-.68,10.2,10.2,0,0,0,.92-1.09,17.42,17.42,0,0,1,3.12-3.51,3.51,3.51,0,0,1,3.05-.87,1.18,1.18,0,0,1,1,1c.16.69.31,1.39.45,2.09a.87.87,0,0,1,0,.35,10.07,10.07,0,0,0,0,2.39c0,1.46.15,2.91.21,4.36a8.15,8.15,0,0,1-.06,1.69c-.16.94.07,1.9-.14,2.83a.43.43,0,0,0,0,.18c.05.24.15.45.44.49s.29.08.44.09a.7.7,0,0,0,.83-.77c0-.09,0-.18,0-.27,0-1.25-.07-2.5-.05-3.75C120.74,34.48,120.63,33,120.76,31.45Z"/><path class="cls-1" d="M46.7,39c0-.36,0-.71,0-1.07a9.52,9.52,0,0,1,.06-2.13,3.35,3.35,0,0,0,0-.71,19,19,0,0,1-.07-2.4c.11-1.19.11-2.37.14-3.56s0-2.38,0-3.56a1.24,1.24,0,0,0-.65-1.17,1.19,1.19,0,0,0-1-.19,2.91,2.91,0,0,0-.68.18c-.31.17-.77,0-1,.33a3.84,3.84,0,0,0-.32,1,2,2,0,0,0,0,.62,13.52,13.52,0,0,1-.08,2.22c0,.32-.11.65-.11,1,0,1.66,0,3.32,0,5h.09c0,1.1,0,2.2,0,3.3A8.83,8.83,0,0,1,43,39.18a3.41,3.41,0,0,0,.27,1.74.32.32,0,0,0,.33.24c.68,0,1.36-.1,2-.16a2.08,2.08,0,0,0,.9-.35.55.55,0,0,0,.25-.76A1.82,1.82,0,0,1,46.7,39Z"/><path class="cls-1" d="M212.49,25.69a5.47,5.47,0,0,0-2.19.31,9.47,9.47,0,0,0-2.06,1,10.35,10.35,0,0,0-1.83,1.4,11.44,11.44,0,0,1-1.16,1,.22.22,0,0,1-.16,0c-.1,0-.13-.11-.12-.2a14,14,0,0,1,.05-2.84,1,1,0,0,0,0-.35c0-.22-.13-.28-.52-.32a7.82,7.82,0,0,0-1.94,0h0c-.6.16-.6.16-.61.67s0,1,0,1.43-.07,1.13-.06,1.69c0,1,0,1.9-.09,2.85-.08,1.12-.16,2.25-.22,3.37a26.87,26.87,0,0,1-.14,2.93,7.07,7.07,0,0,0,.2,2.28.49.49,0,0,0,.5.43,4.63,4.63,0,0,0,2.35-.38.4.4,0,0,0,.24-.43c0-.39,0-.77,0-1.16,0-1.13-.14-2.25,0-3.39a18.45,18.45,0,0,0,.14-3.65,2.47,2.47,0,0,1,0-.62.83.83,0,0,1,.14-.41c.48-.53.82-1.16,1.33-1.67s1.19-1.07,1.8-1.58a6.66,6.66,0,0,1,1.45-1,5.24,5.24,0,0,0,.71-.38,2.16,2.16,0,0,1,.93-.28.6.6,0,0,1,.72.37,7.73,7.73,0,0,1,.64,2,43.2,43.2,0,0,1,.14,5.79,1.21,1.21,0,0,1,0,.35,2.67,2.67,0,0,0-.08,1.06,33.75,33.75,0,0,1,0,3.92c-.06,1.28,0,1.13,1.16,1.16h.09a.5.5,0,0,0,.53-.57c0-.27,0-.53,0-.8.05-1.75.09-3.5.18-5.26.05-1,0-2.08.11-3.12a18.19,18.19,0,0,0,0-3.65A2.17,2.17,0,0,0,212.49,25.69Z"/><path class="cls-1" d="M41.16,25a3,3,0,0,0-1.42-.71,3.68,3.68,0,0,0-2.27.11,4.94,4.94,0,0,0-1.42.9,46.36,46.36,0,0,0-3.69,3.36,1.75,1.75,0,0,1-.2.18.18.18,0,0,1-.28-.09,2.09,2.09,0,0,1,0-.35A20.3,20.3,0,0,1,32,25.31a.88.88,0,0,0-.84-1.2,6.8,6.8,0,0,0-1.59,0c-.41,0-.82.11-1.24.13a.47.47,0,0,0-.4.14h0a.38.38,0,0,0-.24.43,3.39,3.39,0,0,1,.06.62,50.68,50.68,0,0,0-.1,5.08c.05,1.93-.09,3.86.08,5.79,0,.12,0,.24,0,.36a27.49,27.49,0,0,0,0,2.76c-.08.37.06.77-.14,1.13-.09.16.06.37.23.41a1.18,1.18,0,0,0,.26,0l3,0a1.15,1.15,0,0,0,.5-.16.22.22,0,0,0,.15-.28A3.84,3.84,0,0,1,31.73,39c.11-1.07.17-2.13.19-3.2,0-1.42,0-2.85,0-4.28a1.66,1.66,0,0,1,.49-1.27A14.29,14.29,0,0,1,35,28.12c.67-.44,1.36-.85,2-1.26a3.07,3.07,0,0,1,1.41-.48c1.51-.1,1.29-.3,2.75.66l.08,0c.22.15.47.34.72.13a.64.64,0,0,0,.08-.75A4.37,4.37,0,0,0,41.16,25Z"/><path class="cls-1" d="M46.39,18.71a1.44,1.44,0,0,0-1.21-.42,2.9,2.9,0,0,0-1.24.66.15.15,0,0,0,0,.07,3.48,3.48,0,0,0-.23,2,1.69,1.69,0,0,0,2.57.7A2.7,2.7,0,0,0,47,20,1.42,1.42,0,0,0,46.39,18.71Z"/><path class="cls-1" d="M85,25.64a3,3,0,0,0-1.87-.71h0a1.82,1.82,0,0,0-.41-.16,18,18,0,0,0-3.38,0,4.77,4.77,0,0,0-1.12.29c-.17.05-.32.15-.49.2a5.86,5.86,0,0,0-2.63,1.59,2.87,2.87,0,0,0-.86,2.09,2,2,0,0,0,.65,1.78c.59.42,1,1,1.62,1.39s1.37,1,2,1.57a2.86,2.86,0,0,1,.58.55,13.82,13.82,0,0,1,.8,1.28,4,4,0,0,1,.33,2.43c-.46.91-.92,1.81-2.07,2-.2,0-.4.11-.61.13a4.06,4.06,0,0,1-1.68.06,5.4,5.4,0,0,1-2.67-1.36c-.26-.28-.55-.54-.82-.82a.19.19,0,0,0-.24,0c-.07,0-.16.12-.16.19s.06.36,0,.53a1.1,1.1,0,0,0,.65,1.16,7.31,7.31,0,0,0,.72.35,23.66,23.66,0,0,0,2.54.82,4.64,4.64,0,0,0,1.93.2,2.33,2.33,0,0,1,.53,0A3.43,3.43,0,0,0,79.78,41,7.45,7.45,0,0,0,82,40a2.69,2.69,0,0,0,1.32-1.59A3.24,3.24,0,0,0,83,36a4.22,4.22,0,0,0-1.78-1.69c-.62-.36-1.24-.71-1.84-1.08a11.89,11.89,0,0,1-1.87-1.65,2.59,2.59,0,0,1-.88-2.13,7.55,7.55,0,0,1,.18-1.23,1.93,1.93,0,0,1,.63-1.15,5.68,5.68,0,0,1,2-1L81,25.63c.71,0,1.42,0,2.13.06a2.91,2.91,0,0,1,2.45,1.37.28.28,0,0,0,.37.15c.11-.05.12-.2.11-.32a1.06,1.06,0,0,0-.41-.76C85.45,26,85.23,25.81,85,25.64Z"/><path class="cls-1" d="M103.54,29.4a1.64,1.64,0,0,0-.24-.67,7.29,7.29,0,0,1-.64-1.17,1.61,1.61,0,0,0-.37-.49c-.43-.41-.86-.82-1.26-1.26a2.17,2.17,0,0,0-.8-.54,5.32,5.32,0,0,0-2.49-.55,10.17,10.17,0,0,0-3.88.24,3.91,3.91,0,0,0-.84.27c-.71.31-1.4.64-2.1,1a1.12,1.12,0,0,0-.29.2c-.52.49-1.06,1-1.53,1.49A12.74,12.74,0,0,0,88,29.38a3,3,0,0,0-.52,1.22,6.18,6.18,0,0,1-.19,1,5.51,5.51,0,0,0,.33,3.74,8.43,8.43,0,0,0,1.76,2.87,5.85,5.85,0,0,0,1.86,1.36,4.93,4.93,0,0,1,.57.25,17.88,17.88,0,0,0,2.8.85.54.54,0,0,0,.18,0l1.52,0a2.76,2.76,0,0,0,.79-.12c.49-.14.93-.41,1.4-.57a9.2,9.2,0,0,0,2.19-1.15,7,7,0,0,0,2.17-2.31,6.21,6.21,0,0,0,1-3.63c0-.09,0-.18,0-.38A13.93,13.93,0,0,0,103.54,29.4Zm-.47,3.41c0,.55,0,1-.1,1.5a3.7,3.7,0,0,1-.55,1.49c-.32.53-.71,1-1.07,1.52a3.06,3.06,0,0,1-1.05.94,16.46,16.46,0,0,1-2,1.09,10.87,10.87,0,0,1-2.09.36,2.82,2.82,0,0,1-1.31-.19,17.17,17.17,0,0,1-2.12-.93c-.27-.14-.45-.46-.69-.68a5.8,5.8,0,0,1-1.8-4.57,13.63,13.63,0,0,1,.13-1.69,6,6,0,0,1,2.24-3.82,15.1,15.1,0,0,1,3.6-2.1,3.1,3.1,0,0,1,1.22-.24,4.86,4.86,0,0,1,3.76,1.5c.25.26.46.54.72.79a2.6,2.6,0,0,1,.74,1.39c.11.49.19,1,.32,1.48A10,10,0,0,1,103.07,32.82Z"/><path class="cls-1" d="M183.53,31.38a19.29,19.29,0,0,0-1.25-3.32,1.23,1.23,0,0,0-.27-.35c-.21-.21-.44-.4-.63-.63a4.6,4.6,0,0,0-2.7-1.4,2.63,2.63,0,0,0-.7-.09,10.56,10.56,0,0,0-1.42-.05c-.35.08-.71.1-1.05.17a8,8,0,0,0-2.88,1.09,11.43,11.43,0,0,0-2.84,2.78,6.73,6.73,0,0,0-1.14,3.32,8.07,8.07,0,0,0,0,1.51,4.81,4.81,0,0,0,.14.79q.14.6.31,1.2a3.57,3.57,0,0,0,.65,1.35,8.18,8.18,0,0,0,1.66,1.59,9.14,9.14,0,0,0,2.64,1.24,9.66,9.66,0,0,0,3.8.17,1,1,0,0,0,.34-.09,12,12,0,0,0,2-.94,6.27,6.27,0,0,0,1.71-1.66c.12-.2.27-.39.4-.59A6.59,6.59,0,0,0,183.67,33,11.64,11.64,0,0,0,183.53,31.38Zm-.74,2.54a6.48,6.48,0,0,1-1.89,3.75c-.28.26-.55.54-.82.82a3.26,3.26,0,0,1-1.43.85c-.31.09-.63.16-.94.27a1.74,1.74,0,0,1-.87.06,4.06,4.06,0,0,0-1.15-.07,3.28,3.28,0,0,1-2.77-1.13,10.18,10.18,0,0,1-1.37-1.75,1.53,1.53,0,0,1-.31-.73,19.51,19.51,0,0,1-.23-2.48,4.64,4.64,0,0,1,.28-1.94,2.31,2.31,0,0,0,.11-.52,1.83,1.83,0,0,1,.26-.75,10.29,10.29,0,0,1,2.14-2.7,7.05,7.05,0,0,1,3.59-1.44,3.94,3.94,0,0,1,2.3.59A4.68,4.68,0,0,1,181,28a10.28,10.28,0,0,1,1.51,3,4.72,4.72,0,0,1,.27,1.75A7,7,0,0,1,182.78,33.92Z"/><path class="cls-1" d="M198,26.95a11.43,11.43,0,0,0-2.62-1.32,4.28,4.28,0,0,0-2.71,0c-.31.09-.63.18-.93.29l-2.25.84a2,2,0,0,0-.38.23A13.35,13.35,0,0,0,186,30.71a1.72,1.72,0,0,0-.11.24,6,6,0,0,0-.48,2.76,11.29,11.29,0,0,0,.13,1.44,4.63,4.63,0,0,0,1.71,3.12,14.72,14.72,0,0,0,3.28,1.95,7,7,0,0,0,3.06.83,4.45,4.45,0,0,0,1.48-.22,5.44,5.44,0,0,0,2.42-1.42,2.29,2.29,0,0,1,.35-.27,3.3,3.3,0,0,0,.63-.63,10.53,10.53,0,0,0,2.09-4.07,7.29,7.29,0,0,0-.73-5.42A6.08,6.08,0,0,0,198,26.95Zm1.91,6.37a11.48,11.48,0,0,1-.77,2.91,6,6,0,0,1-1.74,2.33,7.72,7.72,0,0,1-2.47,1.38,3.05,3.05,0,0,1-2.17-.1,19.85,19.85,0,0,1-2.33-1.09c-.35-.2-.57-.53-.89-.74a4.13,4.13,0,0,1-1.62-2.87,9.18,9.18,0,0,1,0-1.24,7.72,7.72,0,0,1,1-3.93,1.59,1.59,0,0,1,.3-.44c.59-.62,1.17-1.24,1.78-1.84a7.64,7.64,0,0,1,1.9-1.12,3.71,3.71,0,0,1,3.27,0,4.33,4.33,0,0,1,2.35,2.07,2.22,2.22,0,0,0,.25.36A5.45,5.45,0,0,1,199.93,33.32Z"/><path class="cls-1" d="M322.17,25.9a6,6,0,0,0-2.69-.53,4.23,4.23,0,0,0-2.54.71,9.17,9.17,0,0,1-1.11.72,4.43,4.43,0,0,0-.67.45l-3.34,2.82a2.56,2.56,0,0,1-.19.18.44.44,0,0,1-.23.09c-.11,0-.12-.12-.11-.2,0-.27,0-.53.06-.8a7.52,7.52,0,0,0,.12-1.15,11,11,0,0,1,.18-2.12c0-.26,0-.53,0-.8a.89.89,0,0,0-.81-.81,2.46,2.46,0,0,0-.71.06,4.54,4.54,0,0,1-1.49.17c-.47,0-.69.2-.8.67a9.65,9.65,0,0,0-.12,3,25.09,25.09,0,0,1,.11,4.26c-.11,1.54-.21,3.08-.3,4.32s-.08,2.32-.1,3.33a.93.93,0,0,0,.84,1c.56.07,1.12.13,1.68.16a2.76,2.76,0,0,0,.69-.14.39.39,0,0,0,.29-.3,2.83,2.83,0,0,0,.09-1c0-.24,0-.47,0-.71q0-1.87.05-3.75a2.47,2.47,0,0,1,0-.71,3.1,3.1,0,0,0,0-1,2.94,2.94,0,0,1,.91-2.58c1.2-1,2.29-2.07,3.58-2.94A6.52,6.52,0,0,1,319.83,27a3.25,3.25,0,0,1,1.47.32,6.28,6.28,0,0,1,2.1,1.76,1.45,1.45,0,0,0,.3.32.44.44,0,0,0,.5,0c.17-.09.3-.18.3-.4a2.82,2.82,0,0,0-.64-1.8A4.67,4.67,0,0,0,322.17,25.9Z"/><path class="cls-1" d="M359.77,28a8.12,8.12,0,0,0-4.5-2.83c-.49-.09-1-.23-1.47-.34a3.23,3.23,0,0,0-1.07,0l-1.6.19a1,1,0,0,0-.34.09,5.08,5.08,0,0,0-2.5,2.31,2.89,2.89,0,0,0,0,2.57,4.54,4.54,0,0,0,1.53,1.69,11.62,11.62,0,0,0,3,1.66,4.8,4.8,0,0,1,.65.29,5.08,5.08,0,0,1,2.25,2,3.43,3.43,0,0,1,.55,2,2.49,2.49,0,0,1-1.53,2.31l-.08,0a6.08,6.08,0,0,1-3.21.59,3.85,3.85,0,0,1-3-1.58,5,5,0,0,0-.59-.67.9.9,0,0,0-.3-.18.29.29,0,0,0-.39.33,2.19,2.19,0,0,0,.74,1.38,6,6,0,0,1,.93,1,2.9,2.9,0,0,0,1.07.78,7.08,7.08,0,0,0,2.77.52,2.87,2.87,0,0,0,.88,0,4.91,4.91,0,0,1,1.22-.23,1.47,1.47,0,0,0,.51-.14,11.06,11.06,0,0,0,2.81-2,3.07,3.07,0,0,0,.66-.83,3.1,3.1,0,0,0-.48-3.4c-.18-.19-.4-.36-.57-.56a3,3,0,0,0-1.76-1,6.29,6.29,0,0,1-1.8-.75c-.23-.13-.46-.27-.7-.39a1.66,1.66,0,0,1-.83-.64c-.09-.16-.24-.14-.38-.19a1.9,1.9,0,0,1-1.39-2,5.85,5.85,0,0,1,0-1,2.09,2.09,0,0,1,1-1.57,10.44,10.44,0,0,1,2.38-1,2.12,2.12,0,0,1,2.12.21,1.29,1.29,0,0,0,.32.15,6,6,0,0,1,2,1.28,2,2,0,0,0,.81.54c.09,0,.19,0,.24,0a.36.36,0,0,0,.05-.25A.76.76,0,0,0,359.77,28Z"/><path class="cls-1" d="M272.79,30a7.38,7.38,0,0,1,2-2.07,5.76,5.76,0,0,1,1.28-.79,7.65,7.65,0,0,1,5.47-.48,2.58,2.58,0,0,1,.84.27c.4.31.93.39,1.31.75a.34.34,0,0,0,.5,0,4.09,4.09,0,0,0-.83-.79c-.68-.48-1.38-.92-2.09-1.36a5,5,0,0,0-1.66-.61,7.92,7.92,0,0,0-3.63.14,9.2,9.2,0,0,0-4.36,2.47,10.87,10.87,0,0,0-2.81,4.68,5.81,5.81,0,0,0-.17,2.55,5.2,5.2,0,0,0,.49,1.33,5.47,5.47,0,0,0,1.16,1.78c.45.42,1,.8,1.43,1.2s1.43.48,2,1.05h0a9.73,9.73,0,0,0,1.94.58,17.81,17.81,0,0,0,2.56.17,8.24,8.24,0,0,0,4.3-1.76,3.19,3.19,0,0,1,.36-.25,4.29,4.29,0,0,0,1.27-1.46c0-.08.06-.18,0-.23a.39.39,0,0,0-.25,0,.45.45,0,0,0-.22.13,8.51,8.51,0,0,1-1.4,1.09,7,7,0,0,1-3,1.31,16.28,16.28,0,0,0-1.76.27,1.73,1.73,0,0,1-1.05-.08,3.8,3.8,0,0,0-.85-.24,2.93,2.93,0,0,1-1.09-.37l-.79-.4a.77.77,0,0,0-.15-.22c-.81-.58-1.1-1.53-1.68-2.27-.07-.09-.06-.23-.1-.34a7.45,7.45,0,0,1-.32-2.46,4.41,4.41,0,0,1,1.16-3.43A.64.64,0,0,0,272.79,30Z"/><path class="cls-1" d="M272.13,39.51a4.4,4.4,0,0,0-1.23-.38,3.69,3.69,0,0,0,2,1.05C272.77,39.79,272.44,39.64,272.13,39.51Z"/><path class="cls-1" d="M238.54,22.26A15.23,15.23,0,0,0,241,20.87a31.42,31.42,0,0,0,3.24-2.51,2.49,2.49,0,0,0,.27-.34,7.09,7.09,0,0,0,1.26-2.33,7.15,7.15,0,0,0,.44-2.26,3.49,3.49,0,0,1,.05-.62,13.84,13.84,0,0,0,.13-2.75A6.49,6.49,0,0,0,246,8.6c-.17-.72-.4-1.43-.62-2.14a13.3,13.3,0,0,0-1.82-3.14.94.94,0,0,0-.31-.31,10.68,10.68,0,0,1-.91-.71,6.64,6.64,0,0,0-3.5-1.44A3.71,3.71,0,0,1,238,.7a3.68,3.68,0,0,0-1.59-.05c-.26,0-.53.1-.79.13a13.9,13.9,0,0,0-3.36.81c-.58.2-1.16.42-1.73.67a2,2,0,0,1-.94.29c0-.69.06-1.37.08-2.05,0-.38-.16-.56-.55-.49a7.12,7.12,0,0,1-2.31,0,2,2,0,0,0-1,.06,5.35,5.35,0,0,1-1.39.28.77.77,0,0,0-.69.6,2.28,2.28,0,0,0-.1,1,14,14,0,0,1,.09,2.74c0,.71-.13,1.41-.11,2.13s.13,1.36.12,2c0,1.45-.14,2.9-.08,4.36,0,.82-.08,1.64-.05,2.48,0,1.27,0,2.55-.07,3.83,0,.79.1,1.58,0,2.37a1.52,1.52,0,0,1,0,1,1.78,1.78,0,0,0,0,.71,3.68,3.68,0,0,1,0,1.24,11.67,11.67,0,0,0-.07,1.78,15.73,15.73,0,0,1,0,3.1,12.2,12.2,0,0,1,.11,2.65,10.41,10.41,0,0,1-.06,1.24,5,5,0,0,0-.08.7c0,1-.06,2,0,2.93a7.92,7.92,0,0,1,0,1.85,3.5,3.5,0,0,0,.11,1.23.69.69,0,0,0,.58.59,3.35,3.35,0,0,0,.82,0c.35,0,.71-.05,1,0s.71,0,1.06,0a1.36,1.36,0,0,1,.52.1,1,1,0,0,0,1.1-.11,1.69,1.69,0,0,0,.75-1,11.06,11.06,0,0,0,.18-2.39c0-1.66,0-3.32.06-5a13.89,13.89,0,0,0,0-2c-.14-1.66-.09-3.32-.11-5a4.48,4.48,0,0,0,0-1.15c-.08-.32.06-.49.4-.59a10.09,10.09,0,0,1,2.69-.57c.56,0,1.12-.11,1.69-.15a6.41,6.41,0,0,1,1.51.06c.67.12,1.32.32,2,.44a6.1,6.1,0,0,1,2.07.77,6.87,6.87,0,0,1,2,1.66,7.35,7.35,0,0,1,1.26,2.32,10.14,10.14,0,0,1,.67,3.12,2.9,2.9,0,0,0,0,.53,30.67,30.67,0,0,1,.13,5.52,2.82,2.82,0,0,1-.08.44,12.87,12.87,0,0,0-.13,2.22.79.79,0,0,0,.52.77,2.54,2.54,0,0,0,1.31.17c.5-.07.63-.31.53-.82a1.3,1.3,0,0,1-.07-.7,4.3,4.3,0,0,0,.11-1.24c0-1.42.06-2.85.06-4.27,0-.89,0-1.78-.09-2.67a11.18,11.18,0,0,0-.71-3.21,4.9,4.9,0,0,0-.65-1.45,12.65,12.65,0,0,0-3.67-3.19,5.45,5.45,0,0,0-1.38-.59,12.32,12.32,0,0,0-1.47-.36.38.38,0,0,1-.16-.08.12.12,0,0,1,0-.21A1.72,1.72,0,0,1,238.54,22.26Zm-2.21,0a1.55,1.55,0,0,1-.61.07,30.24,30.24,0,0,0-3.21.08,3.78,3.78,0,0,1-.44,0,2.84,2.84,0,0,0-1.71.4l-.23.13c-.28.13-.49.05-.53-.24a4.28,4.28,0,0,1-.05-1.06,15.16,15.16,0,0,0,0-2.22c0-.59,0-1.19,0-1.78a19,19,0,0,0,0-2.66,3.64,3.64,0,0,1,0-.53,4,4,0,0,0,0-1.15,2.3,2.3,0,0,1,0-1.06A8.93,8.93,0,0,0,229.6,10c0-.3,0-.59,0-.89a4.56,4.56,0,0,0,0-.8,11.76,11.76,0,0,1-.12-2.57,12.32,12.32,0,0,0-.05-1.34.93.93,0,0,1,.67-1,21.43,21.43,0,0,1,2.37-1,23.18,23.18,0,0,1,2.4-.63,4.62,4.62,0,0,1,2.38.16,3.08,3.08,0,0,0,.6.15,2.46,2.46,0,0,1,.91.34,3.18,3.18,0,0,0,1,.48,2.08,2.08,0,0,1,1.06.63,13.12,13.12,0,0,1,1.92,2.09,4.89,4.89,0,0,1,.59,1.09c.21.62.47,1.21.72,1.82a3.94,3.94,0,0,1,.17,1.49c0,.21,0,.42,0,.74a4,4,0,0,1-.21,2.07,14.72,14.72,0,0,1-.64,3,2,2,0,0,1-.09.34A8.65,8.65,0,0,1,240,20.25a7.65,7.65,0,0,0-.73.51A9.42,9.42,0,0,1,236.33,22.23Z"/><path class="cls-1" d="M345,.58l-.18,0a7.19,7.19,0,0,0-2.65.09.47.47,0,0,0-.37.36,1.58,1.58,0,0,0-.06.44,37,37,0,0,0-.12,4.9,1.46,1.46,0,0,1,0,.36,19.53,19.53,0,0,0-.13,2.94,6,6,0,0,1-.08,1.42,6.14,6.14,0,0,0-.12,2,9.12,9.12,0,0,1,0,1.15,14.84,14.84,0,0,0-.06,3.29,14.33,14.33,0,0,1,0,2.48,12.54,12.54,0,0,0,.07,2,2.67,2.67,0,0,1,.05.71,22,22,0,0,0-.12,2.49c0,.33,0,.65,0,1s0,.42,0,.62-.16.27-.3.18a3.4,3.4,0,0,1-.35-.27,4.86,4.86,0,0,0-3-1.18c-.12,0-.23-.07-.35-.07a6.13,6.13,0,0,0-2.89.35,13.46,13.46,0,0,1-1.34.48,2.81,2.81,0,0,0-.5.17,26.08,26.08,0,0,0-3.78,2.51,6.48,6.48,0,0,0-2.3,3.71,6.37,6.37,0,0,0,1,5,7.52,7.52,0,0,0,2.52,2.23,3.06,3.06,0,0,1,.54.31,3.11,3.11,0,0,0,2,.71c.71,0,1.42.12,2.13.15a7,7,0,0,0,2-.21,11.57,11.57,0,0,0,2.65-1c.44-.24.89-.48,1.34-.71.22-.11.35,0,.36.19,0,.42,0,.83,0,1.25s0,.54,0,.8a.75.75,0,0,0,.82.75,11.87,11.87,0,0,0,2.13-.1c.63-.12.8-.31.79-1,0-1-.06-2.08,0-3.12,0-1.84.12-3.69.16-5.53,0-1.34.09-2.68,0-4q-.08-2.23,0-4.46a31.48,31.48,0,0,0,0-4.28,13.71,13.71,0,0,1,.05-1.78c0-.21,0-.41,0-.62q0-2.37,0-4.73c0-1.19,0-2.38.11-3.56a13.23,13.23,0,0,0,.13-2.22,11.06,11.06,0,0,1,.07-2.49c.12-.91.22-1.83.3-2.74A.76.76,0,0,0,345,.58Zm-3.7,30.91a19.08,19.08,0,0,0-.13,2.13c0,1.28-.07,2.55-.18,3.83a.68.68,0,0,1-.4.63c-.45.23-.86.55-1.32.75A14.17,14.17,0,0,1,335.73,40a5.14,5.14,0,0,1-3-.37,9.72,9.72,0,0,1-2.14-1.26,1.09,1.09,0,0,1-.36-.38,7.14,7.14,0,0,1-.77-2.17,1.64,1.64,0,0,0-.11-.43,4.14,4.14,0,0,1-.19-1.58,7.9,7.9,0,0,1,1.11-3.62,10.47,10.47,0,0,1,2.7-2.79,1.6,1.6,0,0,1,.95-.44.67.67,0,0,0,.46-.24,2.32,2.32,0,0,1,1.45-.6,6.33,6.33,0,0,1,4.71,1.51,1.88,1.88,0,0,1,.81,1.61c0,.27,0,.54,0,.8A4.85,4.85,0,0,1,341.26,31.48Z"/><path class="cls-1" d="M253.34,33.56c.67-.24,1.35-.47,2-.78.4-.19.81-.36,1.22-.52.72-.27,1.42-.6,2.15-.86,2.16-.76,4.27-1.65,6.36-2.59a2.17,2.17,0,0,0,1-.86,1.26,1.26,0,0,0-.33-1.93,6.25,6.25,0,0,0-1.47-.82,9.59,9.59,0,0,0-6-.06,15.27,15.27,0,0,0-3.47,1.6,8.63,8.63,0,0,0-3.34,3,3.93,3.93,0,0,0-.85,1.34,7.14,7.14,0,0,0-.23.95A5.94,5.94,0,0,0,250,34.8c0,.3,0,.59,0,.89a1.52,1.52,0,0,0,.07.43c.2.53.4,1.06.64,1.57a5.57,5.57,0,0,0,1.8,2.07A7.47,7.47,0,0,0,255,41a9.18,9.18,0,0,0,1.63.44,15.31,15.31,0,0,0,2.3.08,6.54,6.54,0,0,0,2.56-.66c1-.52,1.93-1.05,2.86-1.64a4.61,4.61,0,0,0,2-3.52.62.62,0,0,0-.39-.71c-.05,0-.12.07-.14.12a2.62,2.62,0,0,1-.82,1.14,2.67,2.67,0,0,0-.45.55,6.8,6.8,0,0,1-2,1.93,8.45,8.45,0,0,1-3.18,1.07,5.35,5.35,0,0,1-2.72-.32,6.31,6.31,0,0,1-2.77-1.54A7.12,7.12,0,0,0,253,37a3.31,3.31,0,0,1-.85-1.54,1.49,1.49,0,0,1,.56-1.58A2.42,2.42,0,0,1,253.34,33.56Zm-.29-2c.43-.57.79-1.18,1.26-1.72a21.92,21.92,0,0,1,1.95-2.07,2.88,2.88,0,0,1,1.19-.75,4.35,4.35,0,0,0,1.12-.54,4.81,4.81,0,0,1,2.3-.57,16.44,16.44,0,0,1,2.13.14,4.2,4.2,0,0,1,1.88,1,.27.27,0,0,1-.08.44c-.34.19-.68.37-1,.53a56.75,56.75,0,0,1-6.13,2.44c-1.44.45-2.87,1-4.34,1.34h-.09c-.06,0-.13,0-.16-.06A.18.18,0,0,1,253.05,31.59Z"/><path class="cls-1" d="M304.43,29.33a3.15,3.15,0,0,0-.41-.88A9.75,9.75,0,0,0,302,26.27a4.24,4.24,0,0,0-1.57-.81,7.91,7.91,0,0,0-3-.48,6.63,6.63,0,0,0-2.33.29c-.72.2-1.4.5-2.09.76a4.33,4.33,0,0,0-2.14,1.54l-1.15,1.69a1.16,1.16,0,0,0-.1.25c-.16.45-.34.89-.49,1.34a4.41,4.41,0,0,0-.28,1.74c.06.77.09,1.54.15,2.32a2.09,2.09,0,0,0,.52,1.39,2,2,0,0,1,.28.46,6.81,6.81,0,0,0,1.53,1.72,8.94,8.94,0,0,0,3.32,1.65,3.93,3.93,0,0,0,1.67.21c.86-.09,1.72-.11,2.58-.18a2.15,2.15,0,0,0,.69-.16c.68-.3,1.34-.64,2-.94a5.13,5.13,0,0,0,1.72-1.39,12.09,12.09,0,0,0,.73-1,4.46,4.46,0,0,0,.84-2.22,3.86,3.86,0,0,1,.08-.62,5.68,5.68,0,0,0,0-2.82C304.72,30.42,304.58,29.88,304.43,29.33Zm-.85,6.41a5.79,5.79,0,0,1-1.29,1.78A5.39,5.39,0,0,1,299.53,39a6.53,6.53,0,0,1-2.9,0,12.31,12.31,0,0,1-2.1-.73,1.53,1.53,0,0,1-.36-.25c-.34-.28-.68-.57-1-.87a2,2,0,0,1-.53-.59,10.22,10.22,0,0,1-1.09-3.08,2,2,0,0,1,0-.62c.14-.76.26-1.52.45-2.26a4.09,4.09,0,0,1,.51-1.21c.4-.62.87-1.19,1.32-1.77a.82.82,0,0,1,.27-.23,15.5,15.5,0,0,1,3.28-1.32,2.12,2.12,0,0,1,1-.07,6.8,6.8,0,0,0,1.42.11,3.58,3.58,0,0,1,.85.18,5.31,5.31,0,0,1,2.45,1.71,2.13,2.13,0,0,1,.61,1.16,5.82,5.82,0,0,0,.23.86,7,7,0,0,1,.33,2.56A6.35,6.35,0,0,1,303.58,35.74Z"/></g></g></svg>