<svg xmlns="http://www.w3.org/2000/svg" viewBox="0 0 494.35 195.68"><defs><style>.cls-1{fill:#fff;}</style></defs><title>cmrTitle</title><g id="Layer_2" data-name="Layer 2"><g id="Home"><path class="cls-1" d="M373.72,12.63a10.18,10.18,0,0,1-1-1.5,10.81,10.81,0,0,0-3.44-3.73,5.11,5.11,0,0,0-2.9-.9,21.25,21.25,0,0,0-5.11.17,6.63,6.63,0,0,0-4.35,2.44c-.85,1.08-1.6,2.2-2.36,3.34a23.19,23.19,0,0,0-3.24,5.67,5.77,5.77,0,0,1-1.06,1.74,16.85,16.85,0,0,0-2,3.56A2.7,2.7,0,0,0,348,25c.35,2,0,4.08,0,6.12,0,2.31-.53,4.63.09,6.94a1.35,1.35,0,0,1,0,.61c-.57,2.69-.28,5.45-.59,8.17a31.35,31.35,0,0,0,.18,4.7,22.32,22.32,0,0,1-.16,3.68c-.16,1.22-.13,2.45-.17,3.68,0,.82,0,1.65,0,2.46-.22,2.73-.08,5.46-.1,8.19s0,5.19-.1,7.78c-.08,3.28-.3,6.55-.27,9.83q0,2.46,0,4.92c0,1-.31,1.34-1.34,1.4s-2,.08-3.06.12a2.67,2.67,0,0,1-1.58-.36c-.31-.19-.57-.43-.4-.82a4.68,4.68,0,0,0,.1-2.63,7.58,7.58,0,0,1-.06-1.43q.21-6.05.06-12.1a3.16,3.16,0,0,1,.18-.78c1.45.36,1.54,1.53,1.65,2.72.26,2.81-.51,5.59-.23,8.4.06.63-.28,1.57.69,1.68.77.08,1.08-.73,1.39-1.34a2.2,2.2,0,0,0,.36-1.37c-.66-3.49.57-6.95.21-10.44a6,6,0,0,1,.44-3.22c.5-1.05-.31-2-.39-3-.22-2.71.29-5.47-.75-8.12a2.6,2.6,0,0,1,.5-2.14c1.69-2.91.85-5.93.3-8.92-.08-.46-.48-.87-.42-1.36.32-2.89-.29-5.89,1-8.66a4.53,4.53,0,0,0-.16-3.92,17.21,17.21,0,0,1-1.35-7.92c.11-1.24.35-2.48-1-3.47s-1.15-2.53.26-3.7a3.67,3.67,0,0,0,1.26-3.48,18.21,18.21,0,0,0-1.1-5.21c-.79-1.95-2.05-3.69-3-5.6a2.38,2.38,0,0,0-1.29-1c1.69.76,2.1,2.21,2.12,3.88,0,1.89-.14,3.71,1.93,5,1.22.74,0,6.69-1.29,7.42a1.47,1.47,0,0,1-.81,0c-.17-1.21-.32-2.43-.51-3.63-.37-2.34-1.08-4.51-3.09-6a1.14,1.14,0,0,1-.28-.3A7.45,7.45,0,0,0,333,8.94a14.41,14.41,0,0,0-6.43-.79A27,27,0,0,0,323.6,9h-.24a.67.67,0,0,0-.63.58v.23c-.12.16-.21.42-.37.47a6.73,6.73,0,0,0-2.67,2.17c-1.26,1.34-2.35,2.86-3.63,4.18-.82.85-1.34,1.89-2.07,2.8a4.3,4.3,0,0,0-.75,2.31c-.08.75-.13,1.5-.15,2.26q-.07,4-.1,8a6,6,0,0,0,.15,1.21,9.92,9.92,0,0,1,.11,2.65c-.09,1.36,0,2.73-.06,4.1,0,2.19,0,4.39-.16,6.57-.29,3.77-.13,7.54-.15,11.3s-.08,7.81-.09,11.71q0,6.58.06,13.16a81.93,81.93,0,0,0,.21,8.83c.11.91-.25,1.3-1.16,1.33-2.33.07-4.64.34-6.95.63a8.93,8.93,0,0,1-2.84-.28c-1.55-.3-2.05-.81-1.81-2.34a20.61,20.61,0,0,0-.05-3.66c0-3.48-.42-7,0-10.45a2.76,2.76,0,0,0,.06-.61c-.61-6.08-.07-12.19-.29-18.28-.1-2.73.17-5.48,0-8.21-.16-3.36.1-6.7.07-10.05,0-1.77-.22-3.52-.21-5.29s-.08-3.42-.13-5.13c0-.27,0-.55,0-.82.26-4.45-.22-8.89-.11-13.33,0-1.64.21-3.27.23-4.9a39.33,39.33,0,0,0-.17-4.91,11.48,11.48,0,0,1,.46-3.42c.09-.51.6-.74,1-.93a5.83,5.83,0,0,1,2.2-.45,69.36,69.36,0,0,0,7-.4h.21c2,0,2.22.21,2.28,2.16q.19,6.17.39,12.33a1.69,1.69,0,0,0,0,.21c0,.26,0,.57.27.72s.5-.09.67-.28c.79-.85,1.64-1.66,2.35-2.57a31.35,31.35,0,0,1,7.5-6.63A21,21,0,0,1,336.21,2a6.34,6.34,0,0,1,3.45,1.17,19.53,19.53,0,0,0,2,1.36,3.92,3.92,0,0,1,1.22,1.08,22.67,22.67,0,0,1,2.91,4.7,27.65,27.65,0,0,1,2,7.9c0,.2.1.41.36.39a.49.49,0,0,0,.33-.19,14,14,0,0,0,.95-1.58,30.21,30.21,0,0,1,2.95-4.69c.24-.33.52-.64.74-1a30,30,0,0,1,9-8.82A7.18,7.18,0,0,1,366.55.74c.53,0,1.07-.27,1.61-.27a7.29,7.29,0,0,1,3.59.66,10.18,10.18,0,0,0,2.93.82,4.42,4.42,0,0,1,2.47,1.38,20.34,20.34,0,0,1,4.3,6.19,17.89,17.89,0,0,1,1.69,6.72c.79,2.4.32,4.89.41,7.33s0,4.93-.05,7.4c-.1,3.7-.22,7.39-.25,11.09,0,3.28,0,6.57-.38,9.85-.29,2.86-.25,5.75-.35,8.63-.09,2.67.07,5.34,0,8,0,2.1.31,4.22-.12,6.31a1.4,1.4,0,0,1-1.25-1.19c-.42-2.09-1.32-4-.79-6.37a8.85,8.85,0,0,0-.75-6.35c-.82-1.41,0-2.71.41-3.93,1.37-3.64,1-7.39,1-11.13,0-.14,0-.32-.07-.4-2-2-.41-3.92.16-5.84.52-1.75.86-3.39-.29-5.09-.85-1.25-.92-2.49.63-3.51,1-.69,1.21-3,.33-4.33a3.26,3.26,0,0,1-.47-3.26,2.08,2.08,0,0,0-.51-2.25,4.43,4.43,0,0,1-.9-4.93c.64-1.5-.43-2.91-.68-4.37,0-.19-.24-.42-.42-.41-2.18.16-3.24-1.66-5-3.06C374.66,10.16,375.62,11.51,373.72,12.63Z"/><path class="cls-1" d="M55.11,8.36a69.74,69.74,0,0,0-9.93.77,15.77,15.77,0,0,0-5.71,1.58,1.8,1.8,0,0,1-.57.23c-2.17.34-3.91,1.57-5.67,2.76a12,12,0,0,1-1.77,1,16.21,16.21,0,0,0-6.9,5.57,1.82,1.82,0,0,1-.4.47,15.08,15.08,0,0,0-2.9,3.41,32.79,32.79,0,0,0-2.12,3.27,41.24,41.24,0,0,0-5,11.88,29.73,29.73,0,0,0-.6,12.42c0,.07,0,.14,0,.2a37.86,37.86,0,0,0,3.25,11.58c.36.81.57,1.69.92,2.5a26.15,26.15,0,0,0,4.46,6.34,43.56,43.56,0,0,0,5.28,5.14c1.17,1,2.58,1.55,3.79,2.45a42.2,42.2,0,0,0,4.15,2.65c2.07,1.19,4.18,2.33,6.3,3.44a6.45,6.45,0,0,0,1.57.44,29.06,29.06,0,0,0,9.55.89c1.83-.19,3.63-.73,5.5-.57a5.45,5.45,0,0,1,.61,0,.45.45,0,0,1,.34.62,1.16,1.16,0,0,1-.43.65,7.12,7.12,0,0,1-1.69.71c-2.33.55-4.66,1.1-7,1.54a48.13,48.13,0,0,1-8.59.72,44,44,0,0,1-5.3-.55A29.82,29.82,0,0,1,27.64,88c-1-.44-2-.82-3.05-1.22a2.65,2.65,0,0,1-.75-.32c-1.32-1.13-3-1.6-4.42-2.58-.72-.51-1.43-1-2.19-1.49a19.91,19.91,0,0,1-5.5-5.16c-.8-1-1.63-2-2.38-3.08-1.76-2.44-3.34-5-5-7.53a6.48,6.48,0,0,1-.51-1.12c-.76-1.89-1.48-3.81-2.28-5.68a18,18,0,0,1-.92-3.57,28.51,28.51,0,0,1-.37-10,46.21,46.21,0,0,1,1.91-8c.55-1.62,1-3.26,1.54-4.9a2.61,2.61,0,0,1,.37-.95,15,15,0,0,0,2-3.8,11.08,11.08,0,0,1,1.26-2.11c1.95-2.46,3.7-5.08,6.08-7.19,1-.91,1.88-2,2.86-2.95A41.84,41.84,0,0,1,28.52,8.22a31.73,31.73,0,0,1,6-2c1.73-.39,3.43-.89,5.19-1.19a36.1,36.1,0,0,1,5.92-.58,38.44,38.44,0,0,1,5.1.5c1.28.17,2.54.57,3.83.65a23.09,23.09,0,0,1,4,.79,4.94,4.94,0,0,1,1.66.78.77.77,0,0,1,.31.9c-.1.36-.4.32-.66.32a8.78,8.78,0,0,1-1.44,0A14.17,14.17,0,0,0,55.11,8.36Z"/><path class="cls-1" d="M141.42,64.16c.48,0,.74-.33,1-.63.68-.77,1.4-1.51,2-2.33a17.65,17.65,0,0,1,5.64-4.68,5.42,5.42,0,0,1,3.56-.73,13.46,13.46,0,0,0,2.25.11,3.26,3.26,0,0,1,2.91,1.63,7.88,7.88,0,0,1,1.41,3.6c.07.68.27,1.34.33,2,.14,1.35.51,2.7,0,4.07a1.9,1.9,0,0,0-.09.81,35.27,35.27,0,0,1-.21,7,4.6,4.6,0,0,0,.08,1.22,13,13,0,0,1-.06,4.7,14.32,14.32,0,0,0-.19,3.06c.06,1.57.09,3.15.06,4.73,0,1-.18,2-.28,3.07a1.09,1.09,0,0,1-1,1.08,9,9,0,0,1-2.46.1c-1-.15-1.52-.57-1.62-1.55a7.68,7.68,0,0,1,0-2.25,62.3,62.3,0,0,0,.61-7.77c.2-2.8.27-5.61.7-8.39a30.2,30.2,0,0,0,.18-3.28,65.88,65.88,0,0,0-.22-9.84,2.81,2.81,0,0,0-3.57-2.66,9.84,9.84,0,0,0-5,2.6,14.42,14.42,0,0,0-2.1,2.23c-.94,1.26-2,2.41-3,3.61a4,4,0,0,0-1.07,3,19.54,19.54,0,0,1-.16,2.45c-.23,3.75-.45,7.5-.43,11.26,0,1.64-.11,3.29-.14,4.93a14.35,14.35,0,0,0,.32,4.08,1.33,1.33,0,0,1-1.34,1.83,22.08,22.08,0,0,1-2.87-.09c-.79-.07-1.07-.39-1-1.23.1-1.71.26-3.42.41-5.12.09-1,.23-2,.3-3.07.31-4.3.62-8.61.65-12.93,0-1.64,0-3.29.06-4.93a1.57,1.57,0,0,0,0-.61,15.52,15.52,0,0,1-.74-4.64c0-.14,0-.28,0-.41a3,3,0,0,0-4.59-2.32,43,43,0,0,0-3.58,2.4,10.93,10.93,0,0,1-1.14.87,10.08,10.08,0,0,0-3.49,3.12c-.16.22-.3.5-.52.62-.82.43-.85,1.18-.9,1.94-.11,1.43-.22,2.87-.31,4.3-.26,4.24-.31,8.48-.31,12.72,0,.82-.06,1.64-.07,2.46a28.69,28.69,0,0,0,0,2.87,15.53,15.53,0,0,1-.12,2.87A1.59,1.59,0,0,1,120,93.46a8.5,8.5,0,0,1-5.44,0,1.52,1.52,0,0,1-1.17-1.29,13.76,13.76,0,0,1-.25-2.85c.17-2.11.25-4.23.22-6.36-.05-3.63,0-7.26,0-10.89,0-1.71-.08-3.43-.06-5.14,0-2.81.14-5.61.21-8.42a5.08,5.08,0,0,1,0-.82c.14-.72-.62-1.54.07-2.12.53-.44,1.33-.1,2-.15,1.09-.09,2.18,0,3.27-.21a7.16,7.16,0,0,1,2.24.07c.84.13,1.13.52,1.16,1.42,0,1.3,0,2.6,0,3.91,0,.41,0,.82,0,1.23a.5.5,0,0,0,.88.33C124.52,61,126,60,127.38,58.86c2.44-2.11,5.24-3.47,8.62-3.12a4.87,4.87,0,0,1,3.66,2,3.84,3.84,0,0,1,.76,1.87c.1.88.26,1.76.36,2.65A3.32,3.32,0,0,0,141.42,64.16Z"/><path class="cls-1" d="M373.72,12.63c.06-.41.11-.81.19-1.22A2.31,2.31,0,0,0,373.7,10c-.19-.47-.63-.45-1-.57A2.08,2.08,0,0,1,372,9c-.31-.27-.61-.61-.47-1.06s.59-.52,1-.42c.7.16,1.5-.12,2.11.55.35.38.74-.09,1.11-.19.57-.15,1,.18.91.74s-.18.8-.24,1.21.49.91.76.61c.57-.62,1.13-.11,1.67-.19.35-.05.7-.2.94.14a2,2,0,0,1,.42.91,13.31,13.31,0,0,0,.68,3,3,3,0,0,1-.17,2.58c-.73,1.2-.28,2.22.36,3.25a1.33,1.33,0,0,0,.8.55c.75.25.91.49.78,1.14a8.44,8.44,0,0,1-.74,2.55.87.87,0,0,0,.23,1.27,2.38,2.38,0,0,1,1,2.33c0,.89,0,1.78,0,2.67-.09,1-.39,1.3-1.53,1.56-.58.13-.74.33-.52.78.34.67.71,1.33,1.09,2a2.75,2.75,0,0,1,.42,2.34,2.81,2.81,0,0,0-.09,1.42,1.14,1.14,0,0,1-.28,1.14,2,2,0,0,0-.55,2.07c.21.78-.14,1-.83,1a.43.43,0,0,0-.3.22.35.35,0,0,0,.19.5c1.22.53,1.26,1.49,1.32,2.69.12,2.46-.27,4.9-.14,7.35a2.86,2.86,0,0,1,0,.82,12.24,12.24,0,0,1-.78,2.54c-.34.7-.11,1.6-.85,2.22-.4.33-.23.84.21,1.25a3.72,3.72,0,0,0,.51.34,1,1,0,0,1,.49,1A16.19,16.19,0,0,0,381.5,66a4.06,4.06,0,0,1-.44,2.78,1,1,0,0,0-.06,1c.77,1.63.8,3.46,1.42,5.13,0,3,.48,6,.15,9a51.1,51.1,0,0,0-.09,5.12c0,1,0,1.92,0,2.87a.67.67,0,0,1-.56.74,25.78,25.78,0,0,1-5.92.26,1.1,1.1,0,0,1-1-1,17.43,17.43,0,0,1-.22-5.11c.27-2.53.15-5.05.27-7.58s.14-5.33.2-8,.21-5.6.15-8.4c-.05-2.53.08-5.06.1-7.59,0-2.74,0-5.47.06-8.21s0-5.32.25-8a34.7,34.7,0,0,0,.06-3.48c0-4.72,0-9.44-.06-14.16a30.52,30.52,0,0,0-.72-5.48C374.78,14.68,374,13.74,373.72,12.63Z"/><path class="cls-1" d="M253.12,67a4,4,0,0,0,2-1.49,46.65,46.65,0,0,1,3.52-4,34.31,34.31,0,0,1,6.47-5,5.8,5.8,0,0,1,2.34-.72,12.46,12.46,0,0,1,6.23.95c.56.25,1.11.54,1.69.75a2.18,2.18,0,0,1,1.47,1.82,11.6,11.6,0,0,0,.72,2.56,5.78,5.78,0,0,1,.26,2.84,24.89,24.89,0,0,0,.14,5.94,4.5,4.5,0,0,1,.06,1c-.3,3.49,0,7-.09,10.46,0,2.87.08,5.75.13,8.63,0,.21,0,.41,0,.62a1.62,1.62,0,0,1-1.91,1.78c-.34,0-.67-.16-1-.21-.67-.09-.89-.57-1-1.13a1,1,0,0,1,0-.41c.47-2.16-.05-4.35.32-6.53a18.77,18.77,0,0,0,.14-3.89c-.13-3.35-.43-6.7-.48-10,0-1.83-.5-3.66-.09-5.5a2,2,0,0,0-.05-.82c-.34-1.61-.67-3.21-1-4.81a2.72,2.72,0,0,0-2.4-2.19,8.09,8.09,0,0,0-7,2,40.11,40.11,0,0,0-7.18,8.09,23.61,23.61,0,0,1-2.11,2.5,14.06,14.06,0,0,0-1.31,1.58,2.46,2.46,0,0,0-.49,1.53,88.06,88.06,0,0,1-.51,9,28.43,28.43,0,0,0,0,3.49,34,34,0,0,1-.38,6.55,1,1,0,0,1-.87,1,16.23,16.23,0,0,1-4.7.26,1.73,1.73,0,0,1-1.53-1.84c.24-3.28,0-6.56.12-9.84.1-4.44,0-8.89,0-13.33,0-3,.16-6,.24-9,0-.07,0-.14,0-.21.16-2,.88-2.64,2.82-2.71,1.23,0,2.46-.12,3.69-.11s1.46.32,1.52,1.47c.09,1.71.12,3.42.17,5.13C253.06,64.42,253.09,65.64,253.12,67Z"/><path class="cls-1" d="M284.16,183.73c.2-2.85.44-6.4.69-9.95a57.8,57.8,0,0,0-.25-9.81,22.22,22.22,0,0,1,.28-6.93c.24-1.09.75-1.6,1.83-1.54a10.47,10.47,0,0,0,3.44-.38,5.67,5.67,0,0,1,1.63-.14,2.06,2.06,0,0,1,1.86,1.87c-.05.61,0,1.24-.1,1.84a25.33,25.33,0,0,0-.41,4.89,17.34,17.34,0,0,1-.27,2.65c-.06.61-.1,1.23-.14,1.84,0,.19,0,.46.26.47a1,1,0,0,0,.53-.21,5.78,5.78,0,0,0,.45-.42c2.56-2.17,5.12-4.34,7.7-6.49a10.21,10.21,0,0,1,1.54-1,21.08,21.08,0,0,0,2.56-1.66,9.74,9.74,0,0,1,5.84-1.65,13.88,13.88,0,0,1,6.19,1.23,10.77,10.77,0,0,1,3.9,2.94,6.5,6.5,0,0,1,1.48,4.15c0,.5-.31.72-.69.91a1,1,0,0,1-1.16,0,3.36,3.36,0,0,1-.69-.74,14.46,14.46,0,0,0-4.84-4,7.49,7.49,0,0,0-3.38-.74,15,15,0,0,0-9.6,2.91c-3,2-5.46,4.55-8.24,6.77-1.95,1.56-2.11,3.74-2.09,5.94a7.14,7.14,0,0,1-.11,2.41,5.69,5.69,0,0,0-.1,1.63q-.07,4.32-.12,8.63c0,.55,0,1.09.08,1.64A6.52,6.52,0,0,1,292,193a.9.9,0,0,1-.67.7,6.37,6.37,0,0,1-1.6.32c-1.29-.06-2.58-.21-3.86-.37a2.14,2.14,0,0,1-1.94-2.21C284,189.08,284.07,186.75,284.16,183.73Z"/><path class="cls-1" d="M341.16,21.78l.74-.71c.2-.2.44-.48.32-.71-.38-.75.08-1.48,0-2.18A2.06,2.06,0,0,1,343,16a.62.62,0,0,0-.28-1.1,2.14,2.14,0,0,1-1.26-1,1.34,1.34,0,0,0-.61-.52c-.35-.12-.85.13-1-.47s.26-.74.49-1.06a.65.65,0,0,0,.15-.37c-.12-1.49.1-3-.48-4.46a2.9,2.9,0,0,0-1.71-1.66,2.92,2.92,0,0,1-1.42-.77.76.76,0,0,1-.13-.56.55.55,0,0,1,.64-.39.7.7,0,0,1,.39.1,32.13,32.13,0,0,0,3,2.06,4.2,4.2,0,0,1,1.07,1.23A33.85,33.85,0,0,1,344,10.8a22.75,22.75,0,0,1,1.1,3.47c.11.39,0,.84.14,1.21.61,1.55.2,3.1,0,4.65a1.14,1.14,0,0,1-1,1.14,1.57,1.57,0,0,0-1.27,1.43c-.2.88.32,1.45,1.26,1.36a5.62,5.62,0,0,0,1-.27c.45.46,0,.9,0,1.33a4.28,4.28,0,0,0-.17,1.82,2.15,2.15,0,0,1-.3,1.95,1,1,0,0,0,.09,1.16,3.9,3.9,0,0,1,.6,2.51,5,5,0,0,0,.81,2.91,4.59,4.59,0,0,1,.26,4.5c-.2.51-.44,1-.63,1.51a4.1,4.1,0,0,0-.28,2,7.82,7.82,0,0,1-.17,3.06,3.13,3.13,0,0,0,.5,2.92,2.25,2.25,0,0,1,.51,1.92,8.08,8.08,0,0,0,0,2.44,7.52,7.52,0,0,1-1.16,5.49,1.71,1.71,0,0,0-.19,1.94c.85,1.46.65,3,.62,4.6a9.28,9.28,0,0,0,.54,4.43,1.89,1.89,0,0,1,0,1.79,6,6,0,0,0-.54,4,25,25,0,0,1-.31,5.71,10.16,10.16,0,0,0,0,2.85A4.6,4.6,0,0,1,342,90a.5.5,0,0,1-.64-.35,3.78,3.78,0,0,1-.12-1c0-1.92,0-3.83,0-5.75a8.74,8.74,0,0,1,.2-1.62,5.72,5.72,0,0,0,0-1.83,10.7,10.7,0,0,0-.73-4c-.14-2,0-4-.26-5.93a5.91,5.91,0,0,1,0-1.64,21.44,21.44,0,0,0,0-6.32,2.25,2.25,0,0,1,0-1,16.27,16.27,0,0,0,.33-4.68c.07-2.32.16-4.64.31-7s0-4.64,0-7a28.32,28.32,0,0,1,.17-3.06,45.59,45.59,0,0,0,.15-8.37C341.32,27.65,341.2,24.72,341.16,21.78Z"/><path class="cls-1" d="M388.24,195.62a16.31,16.31,0,0,1-6.39-1.21,6.68,6.68,0,0,1-2.46-1.8,13.77,13.77,0,0,0-2.14-2.21,5.05,5.05,0,0,1-1.7-3.18.67.67,0,0,1,.9-.76,2.06,2.06,0,0,1,.68.42,11.58,11.58,0,0,1,1.36,1.53c1.64,2.42,4.12,3.33,6.83,3.64a14,14,0,0,0,7.39-1.36l.19-.08c2.39-1,3.31-2.92,3.53-5.32a7.89,7.89,0,0,0-1.28-4.67,11.68,11.68,0,0,0-5.18-4.54,11,11,0,0,0-1.5-.67,26.75,26.75,0,0,1-7-3.81,10.44,10.44,0,0,1-3.53-3.88,6.65,6.65,0,0,1,0-5.93c1.19-2.63,3.37-4.06,5.75-5.33a2.31,2.31,0,0,1,.79-.21q1.83-.23,3.67-.43a7.44,7.44,0,0,1,2.45.11c1.13.26,2.24.57,3.38.79,4.31.82,7.53,3.37,10.37,6.51a1.75,1.75,0,0,1,.38.71.83.83,0,0,1-.12.57c-.11.19-.33.17-.55.11a4.49,4.49,0,0,1-1.86-1.24,13.93,13.93,0,0,0-4.63-3,3,3,0,0,1-.75-.34c-1.52-1.24-3.24-1-4.87-.49a24,24,0,0,0-5.48,2.23,4.81,4.81,0,0,0-2.36,3.62,13.46,13.46,0,0,0-.11,2.26,4.36,4.36,0,0,0,3.19,4.51c.31.12.67.06.87.43a3.83,3.83,0,0,0,1.91,1.48c.55.28,1.07.61,1.61.91a14.48,14.48,0,0,0,4.15,1.73,7,7,0,0,1,4,2.26c.4.46.9.84,1.31,1.29a7.14,7.14,0,0,1,1.11,7.84,7.06,7.06,0,0,1-1.53,1.91,25.47,25.47,0,0,1-6.46,4.65,3.38,3.38,0,0,1-1.18.32,11.31,11.31,0,0,0-2.81.53A6.62,6.62,0,0,1,388.24,195.62Z"/><path class="cls-1" d="M99,78.83C99,75,99,71.17,99,67.35c0-.74.2-1.48.25-2.23A31.13,31.13,0,0,0,99.41,60a4.51,4.51,0,0,1,.08-1.43,8.84,8.84,0,0,1,.73-2.33c.46-.81,1.52-.35,2.24-.75a6.7,6.7,0,0,1,1.58-.41,2.75,2.75,0,0,1,2.32.43,2.86,2.86,0,0,1,1.5,2.69c-.05,2.73,0,5.47,0,8.2s-.07,5.46-.32,8.19a43.81,43.81,0,0,0,.16,5.53,7.71,7.71,0,0,1,0,1.63,21.89,21.89,0,0,0-.13,4.9c0,.82,0,1.64-.06,2.46a4.18,4.18,0,0,0,.26,2,1.26,1.26,0,0,1-.57,1.75,4.8,4.8,0,0,1-2.07.8c-1.56.15-3.13.27-4.69.38a.73.73,0,0,1-.76-.56,7.86,7.86,0,0,1-.62-4,20.35,20.35,0,0,0,.17-3.07c0-2.53,0-5.06,0-7.59Z"/><path class="cls-1" d="M470.84,58.44c.9.09,1.14.22,1.21.74a2.24,2.24,0,0,1,0,.81c-.53,2.18,0,4.37-.12,6.55,0,.2,0,.42.28.46a.51.51,0,0,0,.37-.08,26.36,26.36,0,0,0,2.68-2.22,23.86,23.86,0,0,1,4.22-3.22,21.81,21.81,0,0,1,4.75-2.34,12.6,12.6,0,0,1,5-.71,5,5,0,0,1,4.86,4.65,41.87,41.87,0,0,1,0,8.4c-.25,2.39-.13,4.78-.25,7.18-.19,4-.29,8.07-.41,12.1,0,.61,0,1.23,0,1.84a1.14,1.14,0,0,1-1.22,1.31c-.07,0-.14,0-.2,0-2.6-.06-2.8.28-2.67-2.66a77.84,77.84,0,0,0,0-9,6.14,6.14,0,0,1,.18-2.44,2.77,2.77,0,0,0,.09-.81,99.45,99.45,0,0,0-.31-13.34,17.81,17.81,0,0,0-1.48-4.68,1.37,1.37,0,0,0-1.67-.85,5,5,0,0,0-2.13.65,12,12,0,0,1-1.63.86,15.32,15.32,0,0,0-3.34,2.33c-1.41,1.19-2.83,2.35-4.15,3.65s-2,2.63-3.07,3.84a1.91,1.91,0,0,0-.33,1,5.68,5.68,0,0,0-.1,1.43,42.48,42.48,0,0,1-.33,8.4c-.26,2.61.15,5.2.06,7.8,0,.89,0,1.78.06,2.67a.92.92,0,0,1-.56,1,10.67,10.67,0,0,1-5.41.87,1.14,1.14,0,0,1-1.14-1c-.26-1.74-.76-3.39-.46-5.25a61.83,61.83,0,0,0,.31-6.75c.14-2.59.32-5.18.5-7.77.16-2.19.26-4.37.2-6.56,0-1.3.09-2.6.13-3.9,0-1.1,0-2.19.07-3.29s0-1.16,1.4-1.54c1.58.58,2.34,2,1.37,3.49-1.45,2.28-1.12,4.76-1.23,7.15q-.26,5.64-.81,11.24c-.11,1.16-.45,2.33,1,3.19,1.23.71.89,2.06.11,3.07-1.17,1.52-.64,3.17-.63,4.81-.4-1.89,0-3.34,2-4,.77-.25.92-1,.88-1.68a22.13,22.13,0,0,0-.24-4.5,2.4,2.4,0,0,1-.07-1.22,30.54,30.54,0,0,0,.74-11.93c-.15-1.07.48-2,.64-3a11.37,11.37,0,0,0-.08-3.68C469.92,60.35,469.69,59.2,470.84,58.44Z"/><path class="cls-1" d="M63.9,90c-.38-2.11.06-4.23-.11-6.35,0-.27.06-.55,0-.82-.4-4.44-.07-8.89-.18-13.34a116.69,116.69,0,0,1,.23-11.69,7.8,7.8,0,0,0-.14-1.43.88.88,0,0,1,.55-1,50.18,50.18,0,0,1,7.12-.29c1.4,0,2.31.8,1.95,2.23-.58,2.26.33,4.64-.69,6.87a1.69,1.69,0,0,0,.62,2.2c1.09.72,1,1.66.53,2.71-.36.81-.8,1.59-1.14,2.41-.42,1-.77,2.09.24,3a1.45,1.45,0,0,1,.28,1.17c0,2.4,0,4.79,0,7.19,0,.47.09,1-.57,1.14a1.18,1.18,0,0,1-1.22-.61,3.58,3.58,0,0,1-.54-2.58c.39,3.6-1.26,7.4-1,11.37a1,1,0,0,1-1.07,1.23c-1,0-2.29.44-2.68-.85S64.67,90.82,63.9,90Z"/><path class="cls-1" d="M201.73,188.77c-1.1-.91-2.25-1.78-3.3-2.76a12.6,12.6,0,0,1-2.67-4.11,12,12,0,0,1-1.12-3.06A13.37,13.37,0,0,1,195,173a25,25,0,0,1,6.47-10.78,21.19,21.19,0,0,1,10-5.68,18.24,18.24,0,0,1,8.35-.32,11.41,11.41,0,0,1,3.82,1.4c1.62,1,3.24,2,4.81,3.12a9.41,9.41,0,0,1,1.91,1.82.79.79,0,0,1-1.15-.05c-.87-.82-2.09-1-3-1.73a5.93,5.93,0,0,0-1.94-.61c-4.36-1.43-8.52-.58-12.59,1.1a13.29,13.29,0,0,0-3,1.82,17,17,0,0,0-4.71,4.78,1.49,1.49,0,0,1-.26.32c-2.24,2.18-2.67,4.94-2.66,7.91a17.16,17.16,0,0,0,.73,5.66c.09.26.07.59.22.78,1.34,1.7,2,3.9,3.87,5.23a1.81,1.81,0,0,1,.34.5,6.73,6.73,0,0,1,1.06,1.17c.83,1.17.55,1.62-1.09,1.8l-.06,0C205,189.89,203.09,189.84,201.73,188.77Z"/><path class="cls-1" d="M186.54,58.28c-1.26.32-2.51.65-3.77.95a13.09,13.09,0,0,0-4.51,2.39,4.44,4.44,0,0,0-1.46,2.66,17.38,17.38,0,0,0-.42,2.84,6,6,0,0,0,2,4.9,27.38,27.38,0,0,0,4.31,3.79c1.39.86,2.82,1.67,4.24,2.49a9.73,9.73,0,0,1,4.1,3.9,7.45,7.45,0,0,1,.68,5.51,6.18,6.18,0,0,1-3,3.67,17.14,17.14,0,0,1-5,2.32,7.89,7.89,0,0,1-3,.34,5.36,5.36,0,0,0-1.23,0,10.67,10.67,0,0,1-4.45-.47,54.48,54.48,0,0,1-5.85-1.88,16.79,16.79,0,0,1-1.65-.81A2.53,2.53,0,0,1,166,88.2c.05-.39-.11-.81-.09-1.22,0-.15.21-.33.37-.43a.43.43,0,0,1,.55.07c.63.62,1.29,1.23,1.9,1.88,1.67,1.8,3.9,2.5,6.14,3.13a9.36,9.36,0,0,0,3.87-.14c.47-.07.93-.23,1.4-.31,2.64-.47,3.72-2.55,4.77-4.65a9.19,9.19,0,0,0-.77-5.6,31.82,31.82,0,0,0-1.85-3,6.58,6.58,0,0,0-1.33-1.27c-1.56-1.23-3.1-2.48-4.72-3.61-1.35-.95-2.39-2.23-3.73-3.2S171,67.32,171,65.79a6.6,6.6,0,0,1,2-4.8,13.48,13.48,0,0,1,6-3.66c.39-.1.75-.33,1.14-.45a11,11,0,0,1,2.57-.66,41.4,41.4,0,0,1,7.79.11,4.2,4.2,0,0,1,.95.37c.48.28,1.42.26,1.2,1.08-.17.62-1,.29-1.46.32C189.65,58.21,188.09,57.9,186.54,58.28Z"/><path class="cls-1" d="M63.9,90h.41c1.75,0,2.59-.11,2.55,2.15,0,.77.42,1,1.22,1.06s1.06-.31.87-1a7.16,7.16,0,0,1,.16-3.82,37,37,0,0,0,.57-4.06c.29-2,.61-3.9.95-5.84a1.93,1.93,0,0,1,.37-.72.4.4,0,0,1,.35-.13c.1,0,.24.23.22.29-.71,1.82-.06,3.48.6,5.13.08.2.24.35.47.24s.17-.19.23-.3a.4.4,0,0,0,0-.2c0-2.39,0-4.78,0-7.17,0-.43-.3-.56-.7-.33-.18.1-.32.27-.49.37a.76.76,0,0,1-.94-.15.64.64,0,0,1-.16-.91,3.8,3.8,0,0,0,.8-2.28,2,2,0,0,1,.93-1.53,2.92,2.92,0,0,0,1.06-2.74c-.06-.89-.2-1-1.25-1-.53,0-.78-.22-.72-.73a5.73,5.73,0,0,1,1-3.08,2.51,2.51,0,0,0,.5-2.13,6.55,6.55,0,0,1,.07-2.84,2.14,2.14,0,0,0,0-.41c.09-2-.32-2.4-2.34-2.43s-4.23,0-6.35,0A1.09,1.09,0,0,1,65.2,55c1,0,1.9-.19,2.85-.3a15.64,15.64,0,0,1,3.67.06,2,2,0,0,1,1.94,2.75c-.49,2.39-.18,4.78-.3,7.16a4.79,4.79,0,0,0,.06.81.42.42,0,0,0,.65.21,4,4,0,0,0,.46-.41A106.68,106.68,0,0,1,83,57.6a11.37,11.37,0,0,1,3.28-2.07,8.47,8.47,0,0,1,5.24-.26,6.86,6.86,0,0,1,3.26,1.64,10,10,0,0,1,2,3.28,1.48,1.48,0,0,1-.18,1.74c-.59.49-1.15.05-1.66-.3l-.18-.1c-3.36-2.2-2.85-1.74-6.32-1.52a7.07,7.07,0,0,0-3.26,1.11c-1.57,1-3.15,1.9-4.69,2.91a32.88,32.88,0,0,0-6,4.89,3.81,3.81,0,0,0-1.13,2.93c.1,3.28.14,6.56.09,9.85,0,2.46-.17,4.92-.43,7.37a8.84,8.84,0,0,0,.12,3.64.5.5,0,0,1-.34.65,2.66,2.66,0,0,1-1.16.37l-7-.09a2.73,2.73,0,0,1-.61-.09c-.4-.1-.74-.58-.54-.94C64,91.76,63.72,90.85,63.9,90Z"/><path class="cls-1" d="M470.84,58.44c.05.68.06,1.37.17,2a21.65,21.65,0,0,1,.24,3.69,5.25,5.25,0,0,1-.5,2.58,2.2,2.2,0,0,0,.2,2.68,1.1,1.1,0,0,1,.14,1.31,3,3,0,0,0-.32,1.39,25,25,0,0,1-.31,4.49,7.57,7.57,0,0,1-.56,3,2.26,2.26,0,0,0,0,1.61c.44,1.75,0,3.55.3,5.31a4,4,0,0,1-.24,1.41.67.67,0,0,1-.75.54,2.74,2.74,0,0,0-.41,0c-1.85.17-2.23.7-1.42,2.36a2.54,2.54,0,0,1,.19,2.51,1,1,0,0,1-.76.61.7.7,0,0,1-.77-.54,2.84,2.84,0,0,0-.93-1.54,1.22,1.22,0,0,1-.23-1.82,1.52,1.52,0,0,0,.16-1.87c-.55-1.08-.44-1.36.67-1.91a1.53,1.53,0,0,0,1-1.82.69.69,0,0,0-.32-.46c-.22-.09-.33.13-.39.33s-.05.27-.1.4-.21.39-.43.32a.78.78,0,0,1-.43-.38,2.77,2.77,0,0,1-.26-1,30.43,30.43,0,0,1,0-3.49c.35-3.81.72-7.62.81-11.45a21.53,21.53,0,0,1,.29-4.89,3.56,3.56,0,0,1,.81-1.84,2.5,2.5,0,0,0,.5-1.93,1.88,1.88,0,0,0-.76-1.6A18,18,0,0,1,470.84,58.44Z"/><path class="cls-1" d="M108.28,45.34a6.22,6.22,0,0,1-1.83,4c-1.8,1.7-5.39.47-5.91-1.62a8,8,0,0,1,.52-4.59.35.35,0,0,1,.11-.17A6.68,6.68,0,0,1,104,41.41a3.31,3.31,0,0,1,2.8,1C107.71,43.19,108.48,44,108.28,45.34Z"/><path class="cls-1" d="M206.3,191.22c.18-.08.37-.14.54-.23a.69.69,0,0,0,.37-1c-.27-.59-.59-1.17-.88-1.76.61.31,1.22.61,1.82.93a6.76,6.76,0,0,0,2.5.85,8.78,8.78,0,0,1,2,.56,4,4,0,0,0,2.42.19,37.59,37.59,0,0,1,4-.63,16.21,16.21,0,0,0,6.87-3,19.59,19.59,0,0,0,3.22-2.51,1,1,0,0,1,.52-.31.91.91,0,0,1,.57.07c.22.11.17.36.07.53a9.88,9.88,0,0,1-2.93,3.37,7.4,7.4,0,0,0-.84.58c-2.82,2.52-6.3,3.44-9.9,4.06-2-.19-3.92.1-5.9-.38A22.39,22.39,0,0,1,206.3,191.22Z"/><path class="cls-1" d="M186.54,58.28a3,3,0,0,1,2.13-.46c1,0,2,0,3,0,.2,0,.47,0,.48-.27s-.18-.32-.3-.47-.28-.29-.42-.43a7,7,0,0,1,4.31,1.63c.47.39,1,.72,1.48,1.09a2.43,2.43,0,0,1,.94,1.75c0,.28,0,.61-.25.73a.65.65,0,0,1-.86-.34,6.69,6.69,0,0,0-5.63-3.14C189.82,58.3,188.18,58.32,186.54,58.28Z"/><path class="cls-1" d="M201.73,188.77a10.14,10.14,0,0,1,2.84.88c.72.29,1.48.65,1.68,1.55C204.6,190.65,202.87,190.25,201.73,188.77Z"/><path class="cls-1" d="M323.16,9.38a.51.51,0,0,1-.42.41l-.09-.15a.45.45,0,0,1,.28-.37Z"/><path class="cls-1" d="M323.6,9a.55.55,0,0,1-.44.39l-.06-.06a.41.41,0,0,1,.3-.43Z"/><path class="cls-1" d="M141.19,164a11.29,11.29,0,0,0-1.49-3.35,29.11,29.11,0,0,0-8.44-7.35,12.55,12.55,0,0,0-3.19-1.35,28.35,28.35,0,0,0-3.38-.84.88.88,0,0,1-.36-.18.28.28,0,0,1,0-.49,4,4,0,0,1,.89-.5,35.1,35.1,0,0,0,5.72-3.2,72.42,72.42,0,0,0,7.45-5.78,5.83,5.83,0,0,0,.63-.79,19,19,0,0,0,3.91-10.56,8,8,0,0,1,.12-1.43,31.87,31.87,0,0,0,.3-6.32,15,15,0,0,0-.83-3.37c-.4-1.66-.93-3.29-1.43-4.92-.83-2.74-2.71-4.87-4.2-7.23a2.16,2.16,0,0,0-.72-.72,24.51,24.51,0,0,1-2.1-1.64c-2.43-1.71-5-3.16-8.05-3.31a8.57,8.57,0,0,1-2-.38,8.48,8.48,0,0,0-3.66-.12c-.61.08-1.21.24-1.82.29a32,32,0,0,0-7.74,1.87c-1.33.46-2.68,1-4,1.55a4.63,4.63,0,0,1-2.17.68c.06-1.59.14-3.16.19-4.72,0-.88-.38-1.29-1.26-1.12a16.39,16.39,0,0,1-5.31.05,4.63,4.63,0,0,0-2.23.13,12.31,12.31,0,0,1-3.2.63,1.76,1.76,0,0,0-1.58,1.37,5.26,5.26,0,0,0-.24,2.41,32.28,32.28,0,0,1,.21,6.31c0,1.64-.29,3.25-.26,4.9s.3,3.13.29,4.7c0,3.35-.32,6.68-.18,10,.08,1.89-.19,3.79-.12,5.71.11,2.93-.05,5.87-.15,8.81-.06,1.82.24,3.63.06,5.46a3.49,3.49,0,0,1,0,2.4,4.1,4.1,0,0,0,0,1.63,8.49,8.49,0,0,1,0,2.86,26.86,26.86,0,0,0-.16,4.1c0,2.38.51,4.76.07,7.15a28.07,28.07,0,0,1,.24,6.1,23.91,23.91,0,0,1-.15,2.85,11.63,11.63,0,0,0-.19,1.62c0,2.25-.14,4.52.06,6.75a18.22,18.22,0,0,1-.07,4.25,8.06,8.06,0,0,0,.24,2.84,1.58,1.58,0,0,0,1.33,1.35,7.69,7.69,0,0,0,1.88,0c.81,0,1.63-.12,2.4-.05s1.62-.07,2.43-.08a3.13,3.13,0,0,1,1.2.23,2.38,2.38,0,0,0,2.52-.26,3.89,3.89,0,0,0,1.72-2.19,25.47,25.47,0,0,0,.42-5.5c.05-3.82-.08-7.64.14-11.46a32,32,0,0,0,0-4.51c-.32-3.82-.2-7.65-.26-11.48a10.32,10.32,0,0,0,.05-2.64c-.19-.73.14-1.13.93-1.35a23.23,23.23,0,0,1,6.2-1.31c1.29,0,2.59-.25,3.89-.33a14.79,14.79,0,0,1,3.47.14c1.55.27,3,.74,4.58,1a14,14,0,0,1,4.76,1.76,15.81,15.81,0,0,1,4.5,3.82,16.93,16.93,0,0,1,2.89,5.35,23.35,23.35,0,0,1,1.53,7.18,6.68,6.68,0,0,0,.07,1.23c.79,4.22.28,8.47.3,12.7a6.49,6.49,0,0,1-.19,1,29.6,29.6,0,0,0-.3,5.12,1.83,1.83,0,0,0,1.19,1.77,5.85,5.85,0,0,0,3,.38c1.14-.16,1.45-.72,1.21-1.89a3,3,0,0,1-.15-1.6,9.9,9.9,0,0,0,.25-2.86c0-3.28.13-6.56.13-9.84,0-2.05,0-4.11-.22-6.15A25.75,25.75,0,0,0,141.19,164Zm-21-14.12a3.56,3.56,0,0,1-1.41.15,69.61,69.61,0,0,0-7.38.19,8.74,8.74,0,0,1-1,0,6.54,6.54,0,0,0-3.93.93c-.18.1-.35.21-.54.3-.64.3-1.13.12-1.22-.55a9.84,9.84,0,0,1-.12-2.45,34.88,34.88,0,0,0-.06-5.12c0-1.37,0-2.74,0-4.1a43.84,43.84,0,0,0-.11-6.13,8.42,8.42,0,0,1,.07-1.22,9.21,9.21,0,0,0-.09-2.65,5.28,5.28,0,0,1,0-2.45,20.57,20.57,0,0,0,.26-5.11c0-.68,0-1.36,0-2a10.51,10.51,0,0,0-.05-1.84,27.07,27.07,0,0,1-.28-5.91,28.26,28.26,0,0,0-.12-3.08,2.14,2.14,0,0,1,1.53-2.35,49.35,49.35,0,0,1,5.46-2.34,53.5,53.5,0,0,1,5.53-1.46,10.63,10.63,0,0,1,5.47.37,7.08,7.08,0,0,0,1.39.34,5.68,5.68,0,0,1,2.09.79,7.33,7.33,0,0,0,2.41,1.1,4.79,4.79,0,0,1,2.45,1.44,30.21,30.21,0,0,1,4.43,4.82,11.25,11.25,0,0,1,1.36,2.5c.48,1.42,1.08,2.8,1.66,4.18a9.07,9.07,0,0,1,.38,3.44c0,.48,0,1,0,1.71a9.1,9.1,0,0,1-.48,4.78c0,2.43-.94,4.67-1.48,7a4.59,4.59,0,0,1-.22.79,19.92,19.92,0,0,1-7.63,9.39,17.57,17.57,0,0,0-1.68,1.18A21.69,21.69,0,0,1,120.14,149.87Z"/><path class="cls-1" d="M331.42,3.88l.49.17c.24.09.34.56.12.66a1.11,1.11,0,0,0-.7,1.45s-.18.19-.29.21a.44.44,0,0,1-.37-.08,4.2,4.2,0,0,1-.36-.7C329.73,4.33,330,3.95,331.42,3.88Z"/><path class="cls-1" d="M328.46,5.48a7.47,7.47,0,0,1-.48.92.94.94,0,0,1-1.08.35.69.69,0,0,1-.43-.35.59.59,0,0,1,.13-.53c.46-.39.95-.74,1.44-1.09a.39.39,0,0,1,.36,0c.08.06.09.23.12.36A1.61,1.61,0,0,1,328.46,5.48Z"/><path class="cls-1" d="M339.27,8.08c0,.07,0,.14,0,.19a1.65,1.65,0,0,1-1.24,1.2c-.09,0-.23-.1-.32-.18a.19.19,0,0,1,0-.18c.37-.46.63-1,1.25-1.23C339,7.87,339.16,8,339.27,8.08Z"/><path class="cls-1" d="M373.2,2.78c0,.3-.19.52-.51.48a.8.8,0,0,1-.7-.84.41.41,0,0,1,.42-.35A.68.68,0,0,1,373.2,2.78Z"/><path class="cls-1" d="M323.39,8.88l-.3.43-.44.32c-.37,0-.62-.22-.61-.63a.65.65,0,0,1,.43-.62C322.94,8.22,323.22,8.47,323.39,8.88Z"/><path class="cls-1" d="M361.15,4.18c.11.07.27.11.32.2a.45.45,0,0,1,0,.37,1.38,1.38,0,0,1-.93.65c-.09,0-.22-.08-.32-.14s0-.13,0-.19C360.42,4.66,360.63,4.25,361.15,4.18Z"/><path class="cls-1" d="M367.25,1.87c-.07.08-.14.23-.2.23s-.19-.12-.28-.18c.07-.08.14-.23.2-.23S367.16,1.8,367.25,1.87Z"/><path class="cls-1" d="M347.49,27c-.09-.07-.22-.12-.24-.21s.09-.18.14-.27c.08.07.22.12.24.21S347.55,26.92,347.49,27Z"/><path class="cls-1" d="M370.27,100c-.13,0-.27,0-.4-.08-2.06-.59-4.07,0-6.1.22a1.08,1.08,0,0,0-.85.82,3.66,3.66,0,0,0-.15,1,85.13,85.13,0,0,0-.29,11.29,3.37,3.37,0,0,1,0,.82,45,45,0,0,0-.3,6.76,13.74,13.74,0,0,1-.17,3.27,14.12,14.12,0,0,0-.28,4.5,21.06,21.06,0,0,1-.06,2.66c-.14,2.53-.56,5.06-.14,7.59a33,33,0,0,1,0,5.72,28.9,28.9,0,0,0,.17,4.7,6.14,6.14,0,0,1,.12,1.63,50.67,50.67,0,0,0-.26,5.74c0,.75,0,1.51,0,2.26,0,.48,0,1,0,1.44s-.37.62-.7.4a7.71,7.71,0,0,1-.82-.62,11.19,11.19,0,0,0-6.91-2.71c-.27,0-.53-.16-.8-.17-2.25-.05-4.51-.21-6.65.81a31,31,0,0,1-3.09,1.11,6.45,6.45,0,0,0-1.16.4,60,60,0,0,0-8.69,5.78,14.93,14.93,0,0,0-5.29,8.54,14.66,14.66,0,0,0,2.34,11.51,17.31,17.31,0,0,0,5.8,5.13,7.06,7.06,0,0,1,1.24.72,7.17,7.17,0,0,0,4.56,1.63c1.64.11,3.27.28,4.91.34a16.09,16.09,0,0,0,4.68-.48,26.67,26.67,0,0,0,6.1-2.38c1-.56,2-1.1,3.08-1.63.5-.26.81-.09.83.44,0,1,.05,1.92.07,2.88,0,.62-.05,1.24,0,1.85a1.74,1.74,0,0,0,1.89,1.72,27.32,27.32,0,0,0,4.91-.23c1.44-.27,1.83-.7,1.83-2.22,0-2.39-.14-4.79-.09-7.18.08-4.25.27-8.49.38-12.74.08-3.08.2-6.17.1-9.24q-.18-5.14.06-10.27a72.47,72.47,0,0,0,.05-9.85,31.57,31.57,0,0,1,.12-4.1c0-.48.1-1,.11-1.43q0-5.45,0-10.89c0-2.74.05-5.47.26-8.21a30.47,30.47,0,0,0,.3-5.11,25.45,25.45,0,0,1,.17-5.74c.28-2.1.5-4.21.69-6.32A1.74,1.74,0,0,0,370.27,100Zm-8.52,71.16a44,44,0,0,0-.29,4.9c-.06,2.94-.16,5.88-.41,8.81a1.57,1.57,0,0,1-.91,1.46c-1,.52-2,1.26-3,1.72a32.62,32.62,0,0,1-8.11,2.81,11.84,11.84,0,0,1-7-.85,22.36,22.36,0,0,1-4.93-2.89,2.52,2.52,0,0,1-.83-.88c-.61-1.66-1.7-3.15-1.76-5a3.8,3.8,0,0,0-.26-1,9.53,9.53,0,0,1-.43-3.65,18.18,18.18,0,0,1,2.56-8.34,24.1,24.1,0,0,1,6.21-6.43,3.69,3.69,0,0,1,2.18-1,1.54,1.54,0,0,0,1.06-.56,5.34,5.34,0,0,1,3.33-1.38c4.16-.54,7.65,1.08,10.84,3.47a4.34,4.34,0,0,1,1.87,3.71c0,.62,0,1.23,0,1.85A11.17,11.17,0,0,1,361.75,171.16Z"/><path class="cls-1" d="M188.37,179.14c-.12.1-.27.16-.32.27a6,6,0,0,1-1.88,2.62,6.15,6.15,0,0,0-1,1.26,15.66,15.66,0,0,1-4.71,4.45,19.44,19.44,0,0,1-7.32,2.47,12.31,12.31,0,0,1-6.27-.75c-2.26-.89-4.67-1.54-6.38-3.54a16.37,16.37,0,0,0-1.94-2.1,7.62,7.62,0,0,1-2-3.54,3.43,3.43,0,0,1,1.28-3.63,5.57,5.57,0,0,1,1.47-.71c1.54-.56,3.11-1.09,4.58-1.8.93-.45,1.86-.83,2.82-1.19,1.66-.63,3.28-1.38,5-2,5-1.75,9.83-3.8,14.64-6a5,5,0,0,0,2.3-2c1.11-1.8.93-3.25-.75-4.44a14.39,14.39,0,0,0-3.4-1.9,22.09,22.09,0,0,0-13.92-.15,35.16,35.16,0,0,0-8,3.69c-3,1.75-5.89,3.72-7.7,6.85a9,9,0,0,0-2,3.09,16.44,16.44,0,0,0-.53,2.18,13.69,13.69,0,0,0-.82,6.42c.07.68.06,1.37.11,2.05a3.49,3.49,0,0,0,.16,1c.47,1.21.91,2.44,1.48,3.61a12.83,12.83,0,0,0,4.15,4.76,17.2,17.2,0,0,0,5.7,2.76,21.11,21.11,0,0,0,3.75,1,35.24,35.24,0,0,0,5.29.19,15.06,15.06,0,0,0,5.9-1.53c2.23-1.19,4.44-2.42,6.58-3.77,2.94-1.86,4.19-4.77,4.65-8.09A1.43,1.43,0,0,0,188.37,179.14Zm-29.73-7.74c1-1.31,1.82-2.72,2.9-4a50.45,50.45,0,0,1,4.48-4.77,6.63,6.63,0,0,1,2.73-1.72,10,10,0,0,0,2.58-1.24,11.07,11.07,0,0,1,5.3-1.32,37.82,37.82,0,0,1,4.9.33,9.67,9.67,0,0,1,4.32,2.24.61.61,0,0,1-.17,1c-.78.43-1.56.86-2.37,1.22a130.64,130.64,0,0,1-14.11,5.62c-3.32,1-6.61,2.23-10,3.08a.46.46,0,0,1-.2,0c-.13,0-.3,0-.36-.13A.4.4,0,0,1,158.64,171.4Z"/><path class="cls-1" d="M239.08,74.95c0-.2,0-.41,0-.88a32.07,32.07,0,0,0-.66-7.08,3.78,3.78,0,0,0-.55-1.53,16.81,16.81,0,0,1-1.47-2.7,3.71,3.71,0,0,0-.86-1.14c-1-.95-2-1.89-2.9-2.9a5,5,0,0,0-1.85-1.24A12.25,12.25,0,0,0,225,56.2c-3-.6-6,0-8.94.55a9,9,0,0,0-1.94.63c-1.62.71-3.23,1.47-4.84,2.22a2.58,2.58,0,0,0-.67.47c-1.19,1.13-2.43,2.22-3.53,3.43a29.3,29.3,0,0,0-2.59,3.42,6.82,6.82,0,0,0-1.2,2.81,14.23,14.23,0,0,1-.43,2.21,12.69,12.69,0,0,0,.76,8.62,19.41,19.41,0,0,0,4,6.6A13.47,13.47,0,0,0,210,90.28a11.32,11.32,0,0,1,1.31.57c2,1.16,4.35,1.14,6.45,1.95a1.25,1.25,0,0,0,.41,0l3.49.06a6.36,6.36,0,0,0,1.82-.28c1.13-.31,2.13-.95,3.21-1.31a21.18,21.18,0,0,0,5-2.66,16.07,16.07,0,0,0,5-5.33A14.31,14.31,0,0,0,239.08,74.95Zm-1.74-.11c-.08,1.27-.11,2.37-.24,3.45a8.53,8.53,0,0,1-1.28,3.43c-.75,1.22-1.64,2.34-2.47,3.51a7.05,7.05,0,0,1-2.43,2.17,37.92,37.92,0,0,1-4.67,2.51,25,25,0,0,1-4.82.82,6.49,6.49,0,0,1-3-.44,39.44,39.44,0,0,1-4.88-2.13c-.63-.33-1-1.05-1.59-1.56a13.35,13.35,0,0,1-4.15-10.52,31.38,31.38,0,0,1,.31-3.88,13.77,13.77,0,0,1,5.17-8.79,34.76,34.76,0,0,1,8.28-4.83,7.15,7.15,0,0,1,2.8-.55A11.2,11.2,0,0,1,233,61.49c.56.6,1.07,1.26,1.66,1.81a6,6,0,0,1,1.71,3.21c.25,1.13.44,2.29.73,3.41C237.56,71.61,237.25,73.32,237.33,74.84Z"/><path class="cls-1" d="M277.92,170c-.31-1.27-.64-2.52-1-3.78a7.24,7.24,0,0,0-.94-2,22.45,22.45,0,0,0-4.77-5,9.78,9.78,0,0,0-3.61-1.87c-2.29-.65-4.6-1.39-7-1.12a15.25,15.25,0,0,0-5.35.66c-1.66.45-3.22,1.15-4.81,1.74a10,10,0,0,0-4.93,3.55q-1.34,1.94-2.66,3.9a2.65,2.65,0,0,0-.22.57c-.38,1-.78,2-1.13,3.09a10.15,10.15,0,0,0-.64,4c.14,1.78.2,3.56.34,5.33a4.82,4.82,0,0,0,1.2,3.19,4.57,4.57,0,0,1,.64,1.05,15.68,15.68,0,0,0,3.52,4c2.19,2,4.93,2.89,7.64,3.81a9,9,0,0,0,3.84.48c2-.21,4-.26,5.94-.41a5,5,0,0,0,1.58-.38c1.56-.69,3.08-1.47,4.65-2.16a11.82,11.82,0,0,0,4-3.21A27.73,27.73,0,0,0,275.9,183a10.26,10.26,0,0,0,1.94-5.12,8.89,8.89,0,0,1,.18-1.42A13.07,13.07,0,0,0,277.92,170ZM275,181a13.32,13.32,0,0,1-3,4.11,12.42,12.42,0,0,1-6.37,3.47,15,15,0,0,1-6.68.07,28.38,28.38,0,0,1-4.83-1.68,3.53,3.53,0,0,1-.83-.57c-.79-.66-1.57-1.32-2.34-2a4.57,4.57,0,0,1-1.22-1.36,23.54,23.54,0,0,1-2.51-7.09,4.63,4.63,0,0,1,.11-1.42c.32-1.74.6-3.49,1-5.2a9.41,9.41,0,0,1,1.18-2.79c.92-1.42,2-2.73,3-4.08a1.88,1.88,0,0,1,.62-.52,35.71,35.71,0,0,1,7.56-3,4.87,4.87,0,0,1,2.23-.16,15.67,15.67,0,0,0,3.26.25,8.29,8.29,0,0,1,2,.42c2.4.61,4,2.27,5.64,3.93a4.91,4.91,0,0,1,1.41,2.68,13.4,13.4,0,0,0,.53,2,16.17,16.17,0,0,1,.76,5.89C276.86,176.25,276,178.63,275,181Z"/><path class="cls-1" d="M422.93,75.28a26.8,26.8,0,0,0-.33-3.75,44.42,44.42,0,0,0-2.87-7.65,2.82,2.82,0,0,0-.62-.8c-.47-.49-1-.93-1.45-1.44a10.59,10.59,0,0,0-6.22-3.22,6,6,0,0,0-1.62-.21c-1.1.09-2.16-.37-3.26-.13-.8.17-1.62.23-2.42.4A18.36,18.36,0,0,0,397.49,61,26.31,26.31,0,0,0,391,67.4,15.49,15.49,0,0,0,388.32,75a18.54,18.54,0,0,0,.09,3.48,11.11,11.11,0,0,0,.32,1.81q.33,1.39.72,2.76a8.23,8.23,0,0,0,1.49,3.1,18.84,18.84,0,0,0,3.83,3.65,21,21,0,0,0,6.08,2.86,22.25,22.25,0,0,0,8.75.4,2.29,2.29,0,0,0,.79-.21c1.5-.78,3.2-1.1,4.57-2.17a14.44,14.44,0,0,0,3.93-3.83c.28-.47.61-.9.93-1.35A15.17,15.17,0,0,0,422.93,75.28Zm-2,2.09A14.93,14.93,0,0,1,416.54,86c-.65.61-1.27,1.24-1.89,1.88a7.5,7.5,0,0,1-3.3,2c-.72.21-1.46.37-2.17.63a4,4,0,0,1-2,.14,9.36,9.36,0,0,0-2.65-.17c-2.67.4-4.59-1-6.38-2.6a23.43,23.43,0,0,1-3.16-4,3.53,3.53,0,0,1-.7-1.69,45,45,0,0,1-.52-5.7,10.68,10.68,0,0,1,.64-4.46,5.32,5.32,0,0,0,.26-1.2,4.22,4.22,0,0,1,.61-1.73c1.49-2.2,2.77-4.61,4.94-6.22a16.24,16.24,0,0,1,8.27-3.32,9.08,9.08,0,0,1,5.29,1.35,10.77,10.77,0,0,1,2.92,2.79,23.68,23.68,0,0,1,3.47,6.87,10.87,10.87,0,0,1,.63,4A16.24,16.24,0,0,1,420.88,77.37Z"/><path class="cls-1" d="M460.1,66.07A14,14,0,0,0,456,61.32a26.31,26.31,0,0,0-6-3,9.86,9.86,0,0,0-6.24,0c-.72.21-1.45.41-2.15.67q-2.6.94-5.18,1.94a4.57,4.57,0,0,0-.88.53c-3.21,2.17-5.06,5.49-7.22,8.54a3.93,3.93,0,0,0-.25.56,13.84,13.84,0,0,0-1.11,6.35,26,26,0,0,0,.29,3.31,10.66,10.66,0,0,0,3.93,7.19,33.9,33.9,0,0,0,7.55,4.48,16.21,16.21,0,0,0,7.06,1.9,10.25,10.25,0,0,0,3.4-.5A12.53,12.53,0,0,0,454.71,90a5.29,5.29,0,0,1,.81-.63A7.62,7.62,0,0,0,457,87.94a24.24,24.24,0,0,0,4.81-9.38A16.79,16.79,0,0,0,460.1,66.07Zm.26,9.92a26.43,26.43,0,0,1-1.78,6.7,13.79,13.79,0,0,1-4,5.36,17.79,17.79,0,0,1-5.7,3.17,7,7,0,0,1-5-.23,45.68,45.68,0,0,1-5.37-2.51c-.8-.46-1.31-1.21-2-1.7-2.38-1.57-3.17-4-3.72-6.6a21.08,21.08,0,0,1-.06-2.86c-.33-3.29,1-6.16,2.26-9a3.66,3.66,0,0,1,.7-1c1.35-1.43,2.7-2.86,4.1-4.24,1.24-1.23,2.89-1.78,4.38-2.59,2.51-1.35,5.12-1,7.53,0a10,10,0,0,1,5.41,4.77,5.1,5.1,0,0,0,.59.84A12.55,12.55,0,0,1,460.37,76Z"/></g></g></svg>