<svg xmlns="http://www.w3.org/2000/svg" viewBox="0 0 67.84 67.84"><defs><style>.cls-1{fill:#fe5510;}.cls-2{fill:#fefefe;}</style></defs><title>soundcloud</title><g id="Layer_2" data-name="Layer 2"><g id="Home"><path class="cls-1" d="M33.92,67.84H.3c-.25,0-.3-.06-.3-.3Q0,33.92,0,.3C0,.06.06,0,.3,0H67.54c.25,0,.3.06.3.3q0,33.62,0,67.23c0,.25-.06.3-.3.3Z"/><path class="cls-2" d="M43,44.7H33.5c-.61,0-.66-.05-.66-.66q0-8.81,0-17.61a1,1,0,0,1,.44-.9,10.84,10.84,0,0,1,6.15-2.33,10.86,10.86,0,0,1,11.41,9.12c.07.44.07.44.5.29a6,6,0,0,1,7.24,2.84,6.42,6.42,0,0,1,.76,3.08,6,6,0,0,1-1.72,4.35,6.58,6.58,0,0,1-3.86,1.72,16.82,16.82,0,0,1-2.34.11Z"/><path class="cls-2" d="M31.89,35.91q0,4.12,0,8.24c0,.5-.06.55-.55.55H29.05c-.4,0-.48-.08-.48-.49q0-8.24,0-16.48c0-.43.09-.51.49-.37a7.66,7.66,0,0,1,1.48.65.32.32,0,0,0,.52-.12c.14-.21.3-.41.45-.61s.13-.16.25-.12.12.15.12.25,0,.22,0,.33Q31.89,31.82,31.89,35.91Z"/><path class="cls-2" d="M25.4,35.81q0-4.14,0-8.27c0-.54.08-.62.6-.62a9.87,9.87,0,0,1,1.12,0c.4,0,.49.13.49.54q0,4.83,0,9.66,0,3.49,0,7c0,.5-.06.56-.54.56H25.92c-.44,0-.52-.08-.52-.52Q25.4,40,25.4,35.81Z"/><path class="cls-2" d="M23.39,36.08q0,4,0,8.08c0,.5,0,.55-.55.55H21.65c-.45,0-.52-.06-.52-.52q0-4.34,0-8.67c0-2.21,0-4.41,0-6.62a.67.67,0,0,1,.38-.66,11.77,11.77,0,0,1,1.3-.65c.5-.2.59-.14.59.38Q23.39,32,23.39,36.08Z"/><path class="cls-2" d="M19.13,37.65q0,3.28,0,6.55c0,.45-.05.5-.49.5H17.28c-.29,0-.42-.11-.42-.41q0-4.93,0-9.86c0-.21,0-.38.31-.32s.21-.16.24-.28A8.45,8.45,0,0,1,18.65,31c.09-.13.16-.38.37-.31s.11.29.11.44Q19.13,34.37,19.13,37.65Z"/><path class="cls-2" d="M14.86,39q0,2.6,0,5.19c0,.41-.07.48-.48.49A7.25,7.25,0,0,1,13,44.55a.43.43,0,0,1-.39-.48q0-5.08,0-10.16a.39.39,0,0,1,.36-.43,5.84,5.84,0,0,1,1.41-.15c.37,0,.44.08.44.45Q14.86,36.4,14.86,39Z"/><path class="cls-2" d="M10.59,39q0,1.79,0,3.57a2.59,2.59,0,0,1,0,.3c0,.1,0,.21-.15.24a.25.25,0,0,1-.26-.11,5.85,5.85,0,0,1-1.57-3,5.58,5.58,0,0,1,1.5-5c.09-.1.19-.22.33-.16s.14.23.14.38Q10.59,37.16,10.59,39Z"/></g></g></svg>